<svg width="10" height="18" viewBox="0 0 10 18" fill="none" xmlns="http://www.w3.org/2000/svg">
<path d="M4.28613 15.7139H5.71387V17.1426H8.57129V15.7139H5.71484V14.2852H4.28613V15.7139ZM8.57129 15.7139H10V1.42871H8.57129V15.7139ZM2.85742 14.2852H4.28613V12.8564H2.85742V14.2852ZM1.42871 12.8574H2.85742V11.4287H1.42871V12.8574ZM0 11.4287H1.42871V5.71387H0V11.4287ZM1.42871 5.71387H2.85742V4.28613H1.42871V5.71387ZM2.85742 4.28613H4.28613V2.85742H2.85742V4.28613ZM4.28613 2.85742H5.71387V1.42871H4.28613V2.85742ZM5.71387 1.42871H8.57129V0H5.71387V1.42871Z" fill="#6D7470"/>
<path d="M1.42896 11.4287H2.85669V12.8574H4.2854V14.2852H5.71411V15.7139H8.57153V12.8574H5.71411V11.4287H4.2854V10H2.85669V8.57129H1.42896V11.4287Z" fill="#D0D4C7"/>
<path d="M5.71411 12.8572H8.57153V11.4285H5.71411V12.8572ZM4.2854 11.4285H5.71411V9.99976H4.2854V11.4285ZM2.85669 9.99976H4.2854V8.57104H2.85669V9.99976ZM1.42896 8.57104H2.85669V5.7146H1.42896V8.57104ZM2.85669 5.7146H4.2854V4.28589H2.85669V5.7146ZM4.2854 4.28589H5.71411V2.85718H4.2854V4.28589ZM5.71411 2.85718H7.14282V1.42847H5.71411V2.85718Z" fill="#D9D9D9"/>
<path d="M7.14282 2.85718H5.71411V4.28589H4.2854V5.7146H2.85669V8.57104H4.2854V9.99976H5.71411V11.4285H8.57153V1.42847H7.14282V2.85718Z" fill="white"/>
</svg>
