<svg xmlns="http://www.w3.org/2000/svg" width="9" height="9" viewBox="0 0 9 9" fill="none">
 <g clip-path="url(#clip0_2057_5163)">
 <path d="M0.375 4.875V4.125H0.75V3.75H1.125V3.375H1.5V3H1.875V2.625H2.25V2.25H2.625V1.875H3V1.5H3.375V1.125H3.75V0.75H4.125V0.375H4.5V0.75H4.875V1.125H5.25V1.5H4.875V1.875H4.5V2.25H4.125V2.625H3.75V3H3.375V3.375H3V3.75H8.625V5.25H3V5.625H3.375V6H3.75V6.375H4.125V6.75H4.5V7.125H4.875V7.5H5.25V7.875H4.875V8.25H4.5V8.625H4.125V8.25H3.75V7.875H3.375V7.5H3V7.125H2.625V6.75H2.25V6.375H1.875V6H1.5V5.625H1.125V5.25H0.75V4.875H0.375Z" fill="white"/>
 </g>
 <defs>
 <clipPath id="clip0_2057_5163">
 <rect width="9" height="9" fill="white"/>
 </clipPath>
 </defs>
</svg>
