<svg width="20" height="20" viewBox="0 0 20 20" fill="none" xmlns="http://www.w3.org/2000/svg">
<path d="M19.333 20H0.666992V19.2598H19.333V20ZM0.666992 19.2598H0.444336V18.5186H0.666992V19.2598ZM19.5557 19.2598H19.334V18.5186H19.5557V19.2598ZM0.444336 18.5186H0.222656V17.7783H0.444336V18.5186ZM19.7783 18.5186H19.5557V17.7783H19.7783V18.5186ZM0.222656 17.7773H0V2.22266H0.222656V17.7773ZM20 17.7773H19.7783V2.22266H20V17.7773ZM0.444336 2.22266H0.222656V1.48145H0.444336V2.22266ZM19.7783 2.22266H19.5557V1.48145H19.7783V2.22266ZM0.666992 1.48145H0.444336V0.741211H0.666992V1.48145ZM19.5557 1.48145H19.334V0.741211H19.5557V1.48145ZM19.333 0.741211H0.666992V0H19.333V0.741211Z" fill="#02015D"/>
<path d="M0.88916 17.7778H0.666504V17.0376H0.88916V17.7778ZM19.3335 17.7778H19.1118V17.0376H19.3335V17.7778ZM0.666504 17.0376H0.444824V16.2964H0.666504V17.0376ZM19.5562 17.0376H19.3335V16.2964H19.5562V17.0376ZM0.444824 16.2964H0.222168V15.5552H0.444824V16.2964ZM19.7778 16.2964H19.5562V15.5562H19.7778V16.2964ZM0.444824 2.96338H0.222168V2.22217H0.444824V2.96338ZM19.7778 2.96338H19.5562V2.22217H19.7778V2.96338ZM0.666504 2.22217H0.444824V1.48193H0.666504V2.22217ZM19.5562 2.22217H19.3335V1.48193H19.5562V2.22217ZM0.88916 1.48193H0.666504V0.740723H0.88916V1.48193ZM19.3335 1.48193H19.1118V0.740723H19.3335V1.48193Z" fill="#DDC7FF"/>
<path d="M19.1111 2.96338H19.3337V15.5552H19.1111V16.2964H0.889404V15.5552H0.666748V2.96338H0.889404V2.22217H19.1111V2.96338Z" fill="white"/>
<path d="M19.1108 2.22217H0.88916V2.96338H0.666504V15.5562H0.88916V16.2964H19.1108V17.7778H0.88916V17.0376H0.666504V16.2964H0.444824V15.5552H0.222168V2.96338H0.444824V2.22217H0.666504V1.48193H0.88916V0.740723H19.1108V2.22217ZM19.3335 2.22217H19.5562V2.96338H19.7778V15.5552H19.5562V16.2964H19.3335V17.0376H19.1118V15.5562H19.3335V2.96338H19.1118V1.48193H19.3335V2.22217Z" fill="white"/>
<path d="M0.444824 17.0376H0.666504V17.7778H19.3335V17.0376H19.5562V16.2964H19.7778V17.7778H19.5562V18.519H19.3335V19.2593H0.666504V18.519H0.444824V17.7778H0.222168V16.2964H0.444824V17.0376Z" fill="#987EBF"/>
</svg>
