<svg width="19" height="19" viewBox="0 0 19 19" fill="none" xmlns="http://www.w3.org/2000/svg">
<path d="M3.5625 5.64062H3.26562V5.9375H3.5625V5.64062Z" fill="#02015D"/>
<path d="M3.85938 5.64062H3.5625V5.9375H3.85938V5.64062Z" fill="#02015D"/>
<path d="M4.15625 5.64062H3.85938V5.9375H4.15625V5.64062Z" fill="#02015D"/>
<path d="M4.45312 5.64062H4.15625V5.9375H4.45312V5.64062Z" fill="#02015D"/>
<path d="M4.75 5.64062H4.45312V5.9375H4.75V5.64062Z" fill="#02015D"/>
<path d="M5.04688 5.64062H4.75V5.9375H5.04688V5.64062Z" fill="#02015D"/>
<path d="M5.34375 5.64062H5.04688V5.9375H5.34375V5.64062Z" fill="#02015D"/>
<path d="M5.64062 5.64062H5.34375V5.9375H5.64062V5.64062Z" fill="#02015D"/>
<path d="M5.9375 5.64062H5.64062V5.9375H5.9375V5.64062Z" fill="#02015D"/>
<path d="M6.23438 5.64062H5.9375V5.9375H6.23438V5.64062Z" fill="#02015D"/>
<path d="M6.53125 5.64062H6.23438V5.9375H6.53125V5.64062Z" fill="#02015D"/>
<path d="M6.82812 5.64062H6.53125V5.9375H6.82812V5.64062Z" fill="#02015D"/>
<path d="M7.125 5.64062H6.82812V5.9375H7.125V5.64062Z" fill="#02015D"/>
<path d="M7.42188 5.64062H7.125V5.9375H7.42188V5.64062Z" fill="#02015D"/>
<path d="M7.71875 5.64062H7.42188V5.9375H7.71875V5.64062Z" fill="#02015D"/>
<path d="M8.01562 5.64062H7.71875V5.9375H8.01562V5.64062Z" fill="#02015D"/>
<path d="M11.2812 5.64062H10.9844V5.9375H11.2812V5.64062Z" fill="#02015D"/>
<path d="M11.5781 5.64062H11.2812V5.9375H11.5781V5.64062Z" fill="#02015D"/>
<path d="M11.875 5.64062H11.5781V5.9375H11.875V5.64062Z" fill="#02015D"/>
<path d="M12.1719 5.64062H11.875V5.9375H12.1719V5.64062Z" fill="#02015D"/>
<path d="M12.4688 5.64062H12.1719V5.9375H12.4688V5.64062Z" fill="#02015D"/>
<path d="M12.7656 5.64062H12.4688V5.9375H12.7656V5.64062Z" fill="#02015D"/>
<path d="M13.0625 5.64062H12.7656V5.9375H13.0625V5.64062Z" fill="#02015D"/>
<path d="M13.3594 5.64062H13.0625V5.9375H13.3594V5.64062Z" fill="#02015D"/>
<path d="M13.6562 5.64062H13.3594V5.9375H13.6562V5.64062Z" fill="#02015D"/>
<path d="M13.9531 5.64062H13.6562V5.9375H13.9531V5.64062Z" fill="#02015D"/>
<path d="M14.25 5.64062H13.9531V5.9375H14.25V5.64062Z" fill="#02015D"/>
<path d="M14.5469 5.64062H14.25V5.9375H14.5469V5.64062Z" fill="#02015D"/>
<path d="M14.8438 5.64062H14.5469V5.9375H14.8438V5.64062Z" fill="#02015D"/>
<path d="M15.1406 5.64062H14.8438V5.9375H15.1406V5.64062Z" fill="#02015D"/>
<path d="M15.4375 5.64062H15.1406V5.9375H15.4375V5.64062Z" fill="#02015D"/>
<path d="M15.7344 5.64062H15.4375V5.9375H15.7344V5.64062Z" fill="#02015D"/>
<path d="M3.5625 5.9375H3.26562V6.23438H3.5625V5.9375Z" fill="#02015D"/>
<path d="M3.85938 5.9375H3.5625V6.23438H3.85938V5.9375Z" fill="#02015D"/>
<path d="M4.15625 5.9375H3.85938V6.23438H4.15625V5.9375Z" fill="#02015D"/>
<path d="M4.45312 5.9375H4.15625V6.23438H4.45312V5.9375Z" fill="#02015D"/>
<path d="M4.75 5.9375H4.45312V6.23438H4.75V5.9375Z" fill="#02015D"/>
<path d="M5.04688 5.9375H4.75V6.23438H5.04688V5.9375Z" fill="#02015D"/>
<path d="M5.34375 5.9375H5.04688V6.23438H5.34375V5.9375Z" fill="#02015D"/>
<path d="M5.64062 5.9375H5.34375V6.23438H5.64062V5.9375Z" fill="#02015D"/>
<path d="M5.9375 5.9375H5.64062V6.23438H5.9375V5.9375Z" fill="#02015D"/>
<path d="M6.23438 5.9375H5.9375V6.23438H6.23438V5.9375Z" fill="#02015D"/>
<path d="M6.53125 5.9375H6.23438V6.23438H6.53125V5.9375Z" fill="#02015D"/>
<path d="M6.82812 5.9375H6.53125V6.23438H6.82812V5.9375Z" fill="#02015D"/>
<path d="M7.125 5.9375H6.82812V6.23438H7.125V5.9375Z" fill="#02015D"/>
<path d="M7.42188 5.9375H7.125V6.23438H7.42188V5.9375Z" fill="#02015D"/>
<path d="M7.71875 5.9375H7.42188V6.23438H7.71875V5.9375Z" fill="#02015D"/>
<path d="M8.01562 5.9375H7.71875V6.23438H8.01562V5.9375Z" fill="#02015D"/>
<path d="M11.2812 5.9375H10.9844V6.23438H11.2812V5.9375Z" fill="#02015D"/>
<path d="M11.5781 5.9375H11.2812V6.23438H11.5781V5.9375Z" fill="#02015D"/>
<path d="M11.875 5.9375H11.5781V6.23438H11.875V5.9375Z" fill="#02015D"/>
<path d="M12.1719 5.9375H11.875V6.23438H12.1719V5.9375Z" fill="#02015D"/>
<path d="M12.4688 5.9375H12.1719V6.23438H12.4688V5.9375Z" fill="#02015D"/>
<path d="M12.7656 5.9375H12.4688V6.23438H12.7656V5.9375Z" fill="#02015D"/>
<path d="M13.0625 5.9375H12.7656V6.23438H13.0625V5.9375Z" fill="#02015D"/>
<path d="M13.3594 5.9375H13.0625V6.23438H13.3594V5.9375Z" fill="#02015D"/>
<path d="M13.6562 5.9375H13.3594V6.23438H13.6562V5.9375Z" fill="#02015D"/>
<path d="M13.9531 5.9375H13.6562V6.23438H13.9531V5.9375Z" fill="#02015D"/>
<path d="M14.25 5.9375H13.9531V6.23438H14.25V5.9375Z" fill="#02015D"/>
<path d="M14.5469 5.9375H14.25V6.23438H14.5469V5.9375Z" fill="#02015D"/>
<path d="M14.8438 5.9375H14.5469V6.23438H14.8438V5.9375Z" fill="#02015D"/>
<path d="M15.1406 5.9375H14.8438V6.23438H15.1406V5.9375Z" fill="#02015D"/>
<path d="M15.4375 5.9375H15.1406V6.23438H15.4375V5.9375Z" fill="#02015D"/>
<path d="M15.7344 5.9375H15.4375V6.23438H15.7344V5.9375Z" fill="#02015D"/>
<path d="M2.67188 6.23438H2.375V6.53125H2.67188V6.23438Z" fill="#02015D"/>
<path d="M2.96875 6.23438H2.67188V6.53125H2.96875V6.23438Z" fill="#02015D"/>
<path d="M3.26562 6.23438H2.96875V6.53125H3.26562V6.23438Z" fill="#02015D"/>
<path d="M3.5625 6.23438H3.26562V6.53125H3.5625V6.23438Z" fill="#02015D"/>
<path d="M3.85938 6.23438H3.5625V6.53125H3.85938V6.23438Z" fill="#02015D"/>
<path d="M4.15625 6.23438H3.85938V6.53125H4.15625V6.23438Z" fill="#02015D"/>
<path d="M4.45312 6.23438H4.15625V6.53125H4.45312V6.23438Z" fill="#02015D"/>
<path d="M4.75 6.23438H4.45312V6.53125H4.75V6.23438Z" fill="#02015D"/>
<path d="M5.04688 6.23438H4.75V6.53125H5.04688V6.23438Z" fill="#02015D"/>
<path d="M5.34375 6.23438H5.04688V6.53125H5.34375V6.23438Z" fill="#02015D"/>
<path d="M5.64062 6.23438H5.34375V6.53125H5.64062V6.23438Z" fill="#02015D"/>
<path d="M5.9375 6.23438H5.64062V6.53125H5.9375V6.23438Z" fill="#02015D"/>
<path d="M6.23438 6.23438H5.9375V6.53125H6.23438V6.23438Z" fill="#02015D"/>
<path d="M6.53125 6.23438H6.23438V6.53125H6.53125V6.23438Z" fill="#02015D"/>
<path d="M6.82812 6.23438H6.53125V6.53125H6.82812V6.23438Z" fill="#02015D"/>
<path d="M7.125 6.23438H6.82812V6.53125H7.125V6.23438Z" fill="#02015D"/>
<path d="M7.42188 6.23438H7.125V6.53125H7.42188V6.23438Z" fill="#02015D"/>
<path d="M7.71875 6.23438H7.42188V6.53125H7.71875V6.23438Z" fill="#02015D"/>
<path d="M8.01562 6.23438H7.71875V6.53125H8.01562V6.23438Z" fill="#02015D"/>
<path d="M8.3125 6.23438H8.01562V6.53125H8.3125V6.23438Z" fill="#02015D"/>
<path d="M8.60938 6.23438H8.3125V6.53125H8.60938V6.23438Z" fill="#02015D"/>
<path d="M10.6875 6.23438H10.3906V6.53125H10.6875V6.23438Z" fill="#02015D"/>
<path d="M10.9844 6.23438H10.6875V6.53125H10.9844V6.23438Z" fill="#02015D"/>
<path d="M11.2812 6.23438H10.9844V6.53125H11.2812V6.23438Z" fill="#02015D"/>
<path d="M11.5781 6.23438H11.2812V6.53125H11.5781V6.23438Z" fill="#02015D"/>
<path d="M11.875 6.23438H11.5781V6.53125H11.875V6.23438Z" fill="#02015D"/>
<path d="M12.1719 6.23438H11.875V6.53125H12.1719V6.23438Z" fill="#02015D"/>
<path d="M12.4688 6.23438H12.1719V6.53125H12.4688V6.23438Z" fill="#02015D"/>
<path d="M12.7656 6.23438H12.4688V6.53125H12.7656V6.23438Z" fill="#02015D"/>
<path d="M13.0625 6.23438H12.7656V6.53125H13.0625V6.23438Z" fill="#02015D"/>
<path d="M13.3594 6.23438H13.0625V6.53125H13.3594V6.23438Z" fill="#02015D"/>
<path d="M13.6562 6.23438H13.3594V6.53125H13.6562V6.23438Z" fill="#02015D"/>
<path d="M13.9531 6.23438H13.6562V6.53125H13.9531V6.23438Z" fill="#02015D"/>
<path d="M14.25 6.23438H13.9531V6.53125H14.25V6.23438Z" fill="#02015D"/>
<path d="M14.5469 6.23438H14.25V6.53125H14.5469V6.23438Z" fill="#02015D"/>
<path d="M14.8438 6.23438H14.5469V6.53125H14.8438V6.23438Z" fill="#02015D"/>
<path d="M15.1406 6.23438H14.8438V6.53125H15.1406V6.23438Z" fill="#02015D"/>
<path d="M15.4375 6.23438H15.1406V6.53125H15.4375V6.23438Z" fill="#02015D"/>
<path d="M15.7344 6.23438H15.4375V6.53125H15.7344V6.23438Z" fill="#02015D"/>
<path d="M16.0312 6.23438H15.7344V6.53125H16.0312V6.23438Z" fill="#02015D"/>
<path d="M16.3281 6.23438H16.0312V6.53125H16.3281V6.23438Z" fill="#02015D"/>
<path d="M16.625 6.23438H16.3281V6.53125H16.625V6.23438Z" fill="#02015D"/>
<path d="M2.67188 6.53125H2.375V6.82812H2.67188V6.53125Z" fill="#02015D"/>
<path d="M2.96875 6.53125H2.67188V6.82812H2.96875V6.53125Z" fill="#02015D"/>
<path d="M3.26562 6.53125H2.96875V6.82812H3.26562V6.53125Z" fill="#02015D"/>
<path d="M3.5625 6.53125H3.26562V6.82812H3.5625V6.53125Z" fill="#02015D"/>
<path d="M3.85938 6.53125H3.5625V6.82812H3.85938V6.53125Z" fill="#02015D"/>
<path d="M4.15625 6.53125H3.85938V6.82812H4.15625V6.53125Z" fill="#02015D"/>
<path d="M4.45312 6.53125H4.15625V6.82812H4.45312V6.53125Z" fill="#02015D"/>
<path d="M4.75 6.53125H4.45312V6.82812H4.75V6.53125Z" fill="#02015D"/>
<path d="M5.04688 6.53125H4.75V6.82812H5.04688V6.53125Z" fill="#02015D"/>
<path d="M5.34375 6.53125H5.04688V6.82812H5.34375V6.53125Z" fill="#02015D"/>
<path d="M5.64062 6.53125H5.34375V6.82812H5.64062V6.53125Z" fill="#02015D"/>
<path d="M5.9375 6.53125H5.64062V6.82812H5.9375V6.53125Z" fill="#02015D"/>
<path d="M6.23438 6.53125H5.9375V6.82812H6.23438V6.53125Z" fill="#02015D"/>
<path d="M6.53125 6.53125H6.23438V6.82812H6.53125V6.53125Z" fill="#02015D"/>
<path d="M6.82812 6.53125H6.53125V6.82812H6.82812V6.53125Z" fill="#02015D"/>
<path d="M7.125 6.53125H6.82812V6.82812H7.125V6.53125Z" fill="#02015D"/>
<path d="M7.42188 6.53125H7.125V6.82812H7.42188V6.53125Z" fill="#02015D"/>
<path d="M7.71875 6.53125H7.42188V6.82812H7.71875V6.53125Z" fill="#02015D"/>
<path d="M8.01562 6.53125H7.71875V6.82812H8.01562V6.53125Z" fill="#02015D"/>
<path d="M8.3125 6.53125H8.01562V6.82812H8.3125V6.53125Z" fill="#02015D"/>
<path d="M8.60938 6.53125H8.3125V6.82812H8.60938V6.53125Z" fill="#02015D"/>
<path d="M10.6875 6.53125H10.3906V6.82812H10.6875V6.53125Z" fill="#02015D"/>
<path d="M10.9844 6.53125H10.6875V6.82812H10.9844V6.53125Z" fill="#02015D"/>
<path d="M11.2812 6.53125H10.9844V6.82812H11.2812V6.53125Z" fill="#02015D"/>
<path d="M11.5781 6.53125H11.2812V6.82812H11.5781V6.53125Z" fill="#02015D"/>
<path d="M11.875 6.53125H11.5781V6.82812H11.875V6.53125Z" fill="#02015D"/>
<path d="M12.1719 6.53125H11.875V6.82812H12.1719V6.53125Z" fill="#02015D"/>
<path d="M12.4688 6.53125H12.1719V6.82812H12.4688V6.53125Z" fill="#02015D"/>
<path d="M12.7656 6.53125H12.4688V6.82812H12.7656V6.53125Z" fill="#02015D"/>
<path d="M13.0625 6.53125H12.7656V6.82812H13.0625V6.53125Z" fill="#02015D"/>
<path d="M13.3594 6.53125H13.0625V6.82812H13.3594V6.53125Z" fill="#02015D"/>
<path d="M13.6562 6.53125H13.3594V6.82812H13.6562V6.53125Z" fill="#02015D"/>
<path d="M13.9531 6.53125H13.6562V6.82812H13.9531V6.53125Z" fill="#02015D"/>
<path d="M14.25 6.53125H13.9531V6.82812H14.25V6.53125Z" fill="#02015D"/>
<path d="M14.5469 6.53125H14.25V6.82812H14.5469V6.53125Z" fill="#02015D"/>
<path d="M14.8438 6.53125H14.5469V6.82812H14.8438V6.53125Z" fill="#02015D"/>
<path d="M15.1406 6.53125H14.8438V6.82812H15.1406V6.53125Z" fill="#02015D"/>
<path d="M15.4375 6.53125H15.1406V6.82812H15.4375V6.53125Z" fill="#02015D"/>
<path d="M15.7344 6.53125H15.4375V6.82812H15.7344V6.53125Z" fill="#02015D"/>
<path d="M16.0312 6.53125H15.7344V6.82812H16.0312V6.53125Z" fill="#02015D"/>
<path d="M16.3281 6.53125H16.0312V6.82812H16.3281V6.53125Z" fill="#02015D"/>
<path d="M16.625 6.53125H16.3281V6.82812H16.625V6.53125Z" fill="#02015D"/>
<path d="M2.67188 6.82812H2.375V7.125H2.67188V6.82812Z" fill="#02015D"/>
<path d="M2.96875 6.82812H2.67188V7.125H2.96875V6.82812Z" fill="#02015D"/>
<path d="M3.26562 6.82812H2.96875V7.125H3.26562V6.82812Z" fill="#02015D"/>
<path d="M3.5625 6.82812H3.26562V7.125H3.5625V6.82812Z" fill="#02015D"/>
<path d="M3.85938 6.82812H3.5625V7.125H3.85938V6.82812Z" fill="#02015D"/>
<path d="M4.15625 6.82812H3.85938V7.125H4.15625V6.82812Z" fill="#02015D"/>
<path d="M4.45312 6.82812H4.15625V7.125H4.45312V6.82812Z" fill="#02015D"/>
<path d="M4.75 6.82812H4.45312V7.125H4.75V6.82812Z" fill="#02015D"/>
<path d="M5.04688 6.82812H4.75V7.125H5.04688V6.82812Z" fill="#02015D"/>
<path d="M5.34375 6.82812H5.04688V7.125H5.34375V6.82812Z" fill="#02015D"/>
<path d="M5.64062 6.82812H5.34375V7.125H5.64062V6.82812Z" fill="#02015D"/>
<path d="M5.9375 6.82812H5.64062V7.125H5.9375V6.82812Z" fill="#02015D"/>
<path d="M6.23438 6.82812H5.9375V7.125H6.23438V6.82812Z" fill="#02015D"/>
<path d="M6.53125 6.82812H6.23438V7.125H6.53125V6.82812Z" fill="#02015D"/>
<path d="M6.82812 6.82812H6.53125V7.125H6.82812V6.82812Z" fill="#02015D"/>
<path d="M7.125 6.82812H6.82812V7.125H7.125V6.82812Z" fill="#02015D"/>
<path d="M7.42188 6.82812H7.125V7.125H7.42188V6.82812Z" fill="#02015D"/>
<path d="M7.71875 6.82812H7.42188V7.125H7.71875V6.82812Z" fill="#02015D"/>
<path d="M8.01562 6.82812H7.71875V7.125H8.01562V6.82812Z" fill="#02015D"/>
<path d="M8.3125 6.82812H8.01562V7.125H8.3125V6.82812Z" fill="#02015D"/>
<path d="M8.60938 6.82812H8.3125V7.125H8.60938V6.82812Z" fill="#02015D"/>
<path d="M10.6875 6.82812H10.3906V7.125H10.6875V6.82812Z" fill="#02015D"/>
<path d="M10.9844 6.82812H10.6875V7.125H10.9844V6.82812Z" fill="#02015D"/>
<path d="M11.2812 6.82812H10.9844V7.125H11.2812V6.82812Z" fill="#02015D"/>
<path d="M11.5781 6.82812H11.2812V7.125H11.5781V6.82812Z" fill="#02015D"/>
<path d="M11.875 6.82812H11.5781V7.125H11.875V6.82812Z" fill="#02015D"/>
<path d="M12.1719 6.82812H11.875V7.125H12.1719V6.82812Z" fill="#02015D"/>
<path d="M12.4688 6.82812H12.1719V7.125H12.4688V6.82812Z" fill="#02015D"/>
<path d="M12.7656 6.82812H12.4688V7.125H12.7656V6.82812Z" fill="#02015D"/>
<path d="M13.0625 6.82812H12.7656V7.125H13.0625V6.82812Z" fill="#02015D"/>
<path d="M13.3594 6.82812H13.0625V7.125H13.3594V6.82812Z" fill="#02015D"/>
<path d="M13.6562 6.82812H13.3594V7.125H13.6562V6.82812Z" fill="#02015D"/>
<path d="M13.9531 6.82812H13.6562V7.125H13.9531V6.82812Z" fill="#02015D"/>
<path d="M14.25 6.82812H13.9531V7.125H14.25V6.82812Z" fill="#02015D"/>
<path d="M14.5469 6.82812H14.25V7.125H14.5469V6.82812Z" fill="#02015D"/>
<path d="M14.8438 6.82812H14.5469V7.125H14.8438V6.82812Z" fill="#02015D"/>
<path d="M15.1406 6.82812H14.8438V7.125H15.1406V6.82812Z" fill="#02015D"/>
<path d="M15.4375 6.82812H15.1406V7.125H15.4375V6.82812Z" fill="#02015D"/>
<path d="M15.7344 6.82812H15.4375V7.125H15.7344V6.82812Z" fill="#02015D"/>
<path d="M16.0312 6.82812H15.7344V7.125H16.0312V6.82812Z" fill="#02015D"/>
<path d="M16.3281 6.82812H16.0312V7.125H16.3281V6.82812Z" fill="#02015D"/>
<path d="M16.625 6.82812H16.3281V7.125H16.625V6.82812Z" fill="#02015D"/>
<path d="M1.78125 7.125H1.48438V7.42188H1.78125V7.125Z" fill="#02015D"/>
<path d="M2.07812 7.125H1.78125V7.42188H2.07812V7.125Z" fill="#02015D"/>
<path d="M2.375 7.125H2.07812V7.42188H2.375V7.125Z" fill="#02015D"/>
<path d="M2.67188 7.125H2.375V7.42188H2.67188V7.125Z" fill="#02015D"/>
<path d="M2.96875 7.125H2.67188V7.42188H2.96875V7.125Z" fill="#02015D"/>
<path d="M3.26562 7.125H2.96875V7.42188H3.26562V7.125Z" fill="#02015D"/>
<path d="M3.5625 7.125H3.26562V7.42188H3.5625V7.125Z" fill="#02015D"/>
<path d="M3.85938 7.125H3.5625V7.42188H3.85938V7.125Z" fill="#02015D"/>
<path d="M4.15625 7.125H3.85938V7.42188H4.15625V7.125Z" fill="#02015D"/>
<path d="M4.45312 7.125H4.15625V7.42188H4.45312V7.125Z" fill="#02015D"/>
<path d="M4.75 7.125H4.45312V7.42188H4.75V7.125Z" fill="#02015D"/>
<path d="M5.04688 7.125H4.75V7.42188H5.04688V7.125Z" fill="#02015D"/>
<path d="M5.34375 7.125H5.04688V7.42188H5.34375V7.125Z" fill="#02015D"/>
<path d="M5.64062 7.125H5.34375V7.42188H5.64062V7.125Z" fill="#02015D"/>
<path d="M5.9375 7.125H5.64062V7.42188H5.9375V7.125Z" fill="#02015D"/>
<path d="M6.23438 7.125H5.9375V7.42188H6.23438V7.125Z" fill="#02015D"/>
<path d="M6.53125 7.125H6.23438V7.42188H6.53125V7.125Z" fill="#02015D"/>
<path d="M6.82812 7.125H6.53125V7.42188H6.82812V7.125Z" fill="#02015D"/>
<path d="M7.125 7.125H6.82812V7.42188H7.125V7.125Z" fill="#02015D"/>
<path d="M7.42188 7.125H7.125V7.42188H7.42188V7.125Z" fill="#02015D"/>
<path d="M7.71875 7.125H7.42188V7.42188H7.71875V7.125Z" fill="#02015D"/>
<path d="M8.01562 7.125H7.71875V7.42188H8.01562V7.125Z" fill="#02015D"/>
<path d="M8.3125 7.125H8.01562V7.42188H8.3125V7.125Z" fill="#02015D"/>
<path d="M8.60938 7.125H8.3125V7.42188H8.60938V7.125Z" fill="#02015D"/>
<path d="M8.90625 7.125H8.60938V7.42188H8.90625V7.125Z" fill="#02015D"/>
<path d="M9.20312 7.125H8.90625V7.42188H9.20312V7.125Z" fill="#02015D"/>
<path d="M9.5 7.125H9.20312V7.42188H9.5V7.125Z" fill="#02015D"/>
<path d="M9.79688 7.125H9.5V7.42188H9.79688V7.125Z" fill="#02015D"/>
<path d="M10.0938 7.125H9.79688V7.42188H10.0938V7.125Z" fill="#02015D"/>
<path d="M10.3906 7.125H10.0938V7.42188H10.3906V7.125Z" fill="#02015D"/>
<path d="M10.6875 7.125H10.3906V7.42188H10.6875V7.125Z" fill="#02015D"/>
<path d="M10.9844 7.125H10.6875V7.42188H10.9844V7.125Z" fill="#02015D"/>
<path d="M11.2812 7.125H10.9844V7.42188H11.2812V7.125Z" fill="#02015D"/>
<path d="M11.5781 7.125H11.2812V7.42188H11.5781V7.125Z" fill="#02015D"/>
<path d="M11.875 7.125H11.5781V7.42188H11.875V7.125Z" fill="#02015D"/>
<path d="M12.1719 7.125H11.875V7.42188H12.1719V7.125Z" fill="#02015D"/>
<path d="M12.4688 7.125H12.1719V7.42188H12.4688V7.125Z" fill="#02015D"/>
<path d="M12.7656 7.125H12.4688V7.42188H12.7656V7.125Z" fill="#02015D"/>
<path d="M13.0625 7.125H12.7656V7.42188H13.0625V7.125Z" fill="#02015D"/>
<path d="M13.3594 7.125H13.0625V7.42188H13.3594V7.125Z" fill="#02015D"/>
<path d="M13.6562 7.125H13.3594V7.42188H13.6562V7.125Z" fill="#02015D"/>
<path d="M13.9531 7.125H13.6562V7.42188H13.9531V7.125Z" fill="#02015D"/>
<path d="M14.25 7.125H13.9531V7.42188H14.25V7.125Z" fill="#02015D"/>
<path d="M14.5469 7.125H14.25V7.42188H14.5469V7.125Z" fill="#02015D"/>
<path d="M14.8438 7.125H14.5469V7.42188H14.8438V7.125Z" fill="#02015D"/>
<path d="M15.1406 7.125H14.8438V7.42188H15.1406V7.125Z" fill="#02015D"/>
<path d="M15.4375 7.125H15.1406V7.42188H15.4375V7.125Z" fill="#02015D"/>
<path d="M15.7344 7.125H15.4375V7.42188H15.7344V7.125Z" fill="#02015D"/>
<path d="M16.0312 7.125H15.7344V7.42188H16.0312V7.125Z" fill="#02015D"/>
<path d="M16.3281 7.125H16.0312V7.42188H16.3281V7.125Z" fill="#02015D"/>
<path d="M16.625 7.125H16.3281V7.42188H16.625V7.125Z" fill="#02015D"/>
<path d="M16.9219 7.125H16.625V7.42188H16.9219V7.125Z" fill="#02015D"/>
<path d="M17.2188 7.125H16.9219V7.42188H17.2188V7.125Z" fill="#02015D"/>
<path d="M17.5156 7.125H17.2188V7.42188H17.5156V7.125Z" fill="#02015D"/>
<path d="M1.78125 7.42188H1.48438V7.71875H1.78125V7.42188Z" fill="#02015D"/>
<path d="M2.07812 7.42188H1.78125V7.71875H2.07812V7.42188Z" fill="#02015D"/>
<path d="M2.375 7.42188H2.07812V7.71875H2.375V7.42188Z" fill="#02015D"/>
<path d="M2.67188 7.42188H2.375V7.71875H2.67188V7.42188Z" fill="#02015D"/>
<path d="M2.96875 7.42188H2.67188V7.71875H2.96875V7.42188Z" fill="#02015D"/>
<path d="M3.26562 7.42188H2.96875V7.71875H3.26562V7.42188Z" fill="#02015D"/>
<path d="M3.5625 7.42188H3.26562V7.71875H3.5625V7.42188Z" fill="#02015D"/>
<path d="M3.85938 7.42188H3.5625V7.71875H3.85938V7.42188Z" fill="#02015D"/>
<path d="M4.15625 7.42188H3.85938V7.71875H4.15625V7.42188Z" fill="#02015D"/>
<path d="M4.45312 7.42188H4.15625V7.71875H4.45312V7.42188Z" fill="#02015D"/>
<path d="M4.75 7.42188H4.45312V7.71875H4.75V7.42188Z" fill="#02015D"/>
<path d="M5.04688 7.42188H4.75V7.71875H5.04688V7.42188Z" fill="#02015D"/>
<path d="M5.34375 7.42188H5.04688V7.71875H5.34375V7.42188Z" fill="#02015D"/>
<path d="M5.64062 7.42188H5.34375V7.71875H5.64062V7.42188Z" fill="#02015D"/>
<path d="M5.9375 7.42188H5.64062V7.71875H5.9375V7.42188Z" fill="#02015D"/>
<path d="M6.23438 7.42188H5.9375V7.71875H6.23438V7.42188Z" fill="#02015D"/>
<path d="M6.53125 7.42188H6.23438V7.71875H6.53125V7.42188Z" fill="#02015D"/>
<path d="M6.82812 7.42188H6.53125V7.71875H6.82812V7.42188Z" fill="#02015D"/>
<path d="M7.125 7.42188H6.82812V7.71875H7.125V7.42188Z" fill="#02015D"/>
<path d="M7.42188 7.42188H7.125V7.71875H7.42188V7.42188Z" fill="#02015D"/>
<path d="M7.71875 7.42188H7.42188V7.71875H7.71875V7.42188Z" fill="#02015D"/>
<path d="M8.01562 7.42188H7.71875V7.71875H8.01562V7.42188Z" fill="#02015D"/>
<path d="M8.3125 7.42188H8.01562V7.71875H8.3125V7.42188Z" fill="#02015D"/>
<path d="M8.60938 7.42188H8.3125V7.71875H8.60938V7.42188Z" fill="#02015D"/>
<path d="M8.90625 7.42188H8.60938V7.71875H8.90625V7.42188Z" fill="#02015D"/>
<path d="M9.20312 7.42188H8.90625V7.71875H9.20312V7.42188Z" fill="#02015D"/>
<path d="M9.5 7.42188H9.20312V7.71875H9.5V7.42188Z" fill="#02015D"/>
<path d="M9.79688 7.42188H9.5V7.71875H9.79688V7.42188Z" fill="#02015D"/>
<path d="M10.0938 7.42188H9.79688V7.71875H10.0938V7.42188Z" fill="#02015D"/>
<path d="M10.3906 7.42188H10.0938V7.71875H10.3906V7.42188Z" fill="#02015D"/>
<path d="M10.6875 7.42188H10.3906V7.71875H10.6875V7.42188Z" fill="#02015D"/>
<path d="M10.9844 7.42188H10.6875V7.71875H10.9844V7.42188Z" fill="#02015D"/>
<path d="M11.2812 7.42188H10.9844V7.71875H11.2812V7.42188Z" fill="#02015D"/>
<path d="M11.5781 7.42188H11.2812V7.71875H11.5781V7.42188Z" fill="#02015D"/>
<path d="M11.875 7.42188H11.5781V7.71875H11.875V7.42188Z" fill="#02015D"/>
<path d="M12.1719 7.42188H11.875V7.71875H12.1719V7.42188Z" fill="#02015D"/>
<path d="M12.4688 7.42188H12.1719V7.71875H12.4688V7.42188Z" fill="#02015D"/>
<path d="M12.7656 7.42188H12.4688V7.71875H12.7656V7.42188Z" fill="#02015D"/>
<path d="M13.0625 7.42188H12.7656V7.71875H13.0625V7.42188Z" fill="#02015D"/>
<path d="M13.3594 7.42188H13.0625V7.71875H13.3594V7.42188Z" fill="#02015D"/>
<path d="M13.6562 7.42188H13.3594V7.71875H13.6562V7.42188Z" fill="#02015D"/>
<path d="M13.9531 7.42188H13.6562V7.71875H13.9531V7.42188Z" fill="#02015D"/>
<path d="M14.25 7.42188H13.9531V7.71875H14.25V7.42188Z" fill="#02015D"/>
<path d="M14.5469 7.42188H14.25V7.71875H14.5469V7.42188Z" fill="#02015D"/>
<path d="M14.8438 7.42188H14.5469V7.71875H14.8438V7.42188Z" fill="#02015D"/>
<path d="M15.1406 7.42188H14.8438V7.71875H15.1406V7.42188Z" fill="#02015D"/>
<path d="M15.4375 7.42188H15.1406V7.71875H15.4375V7.42188Z" fill="#02015D"/>
<path d="M15.7344 7.42188H15.4375V7.71875H15.7344V7.42188Z" fill="#02015D"/>
<path d="M16.0312 7.42188H15.7344V7.71875H16.0312V7.42188Z" fill="#02015D"/>
<path d="M16.3281 7.42188H16.0312V7.71875H16.3281V7.42188Z" fill="#02015D"/>
<path d="M16.625 7.42188H16.3281V7.71875H16.625V7.42188Z" fill="#02015D"/>
<path d="M16.9219 7.42188H16.625V7.71875H16.9219V7.42188Z" fill="#02015D"/>
<path d="M17.2188 7.42188H16.9219V7.71875H17.2188V7.42188Z" fill="#02015D"/>
<path d="M17.5156 7.42188H17.2188V7.71875H17.5156V7.42188Z" fill="#02015D"/>
<path d="M1.78125 7.71875H1.48438V8.01562H1.78125V7.71875Z" fill="#02015D"/>
<path d="M2.07812 7.71875H1.78125V8.01562H2.07812V7.71875Z" fill="#02015D"/>
<path d="M2.375 7.71875H2.07812V8.01562H2.375V7.71875Z" fill="#02015D"/>
<path d="M2.67188 7.71875H2.375V8.01562H2.67188V7.71875Z" fill="#02015D"/>
<path d="M2.96875 7.71875H2.67188V8.01562H2.96875V7.71875Z" fill="#02015D"/>
<path d="M3.26562 7.71875H2.96875V8.01562H3.26562V7.71875Z" fill="#02015D"/>
<path d="M3.5625 7.71875H3.26562V8.01562H3.5625V7.71875Z" fill="#02015D"/>
<path d="M3.85938 7.71875H3.5625V8.01562H3.85938V7.71875Z" fill="#02015D"/>
<path d="M4.15625 7.71875H3.85938V8.01562H4.15625V7.71875Z" fill="#02015D"/>
<path d="M4.45312 7.71875H4.15625V8.01562H4.45312V7.71875Z" fill="#02015D"/>
<path d="M4.75 7.71875H4.45312V8.01562H4.75V7.71875Z" fill="#02015D"/>
<path d="M5.04688 7.71875H4.75V8.01562H5.04688V7.71875Z" fill="#02015D"/>
<path d="M5.34375 7.71875H5.04688V8.01562H5.34375V7.71875Z" fill="#02015D"/>
<path d="M5.64062 7.71875H5.34375V8.01562H5.64062V7.71875Z" fill="#02015D"/>
<path d="M5.9375 7.71875H5.64062V8.01562H5.9375V7.71875Z" fill="#02015D"/>
<path d="M6.23438 7.71875H5.9375V8.01562H6.23438V7.71875Z" fill="#02015D"/>
<path d="M6.53125 7.71875H6.23438V8.01562H6.53125V7.71875Z" fill="#02015D"/>
<path d="M6.82812 7.71875H6.53125V8.01562H6.82812V7.71875Z" fill="#02015D"/>
<path d="M7.125 7.71875H6.82812V8.01562H7.125V7.71875Z" fill="#02015D"/>
<path d="M7.42188 7.71875H7.125V8.01562H7.42188V7.71875Z" fill="#02015D"/>
<path d="M7.71875 7.71875H7.42188V8.01562H7.71875V7.71875Z" fill="#02015D"/>
<path d="M8.01562 7.71875H7.71875V8.01562H8.01562V7.71875Z" fill="#02015D"/>
<path d="M8.3125 7.71875H8.01562V8.01562H8.3125V7.71875Z" fill="#02015D"/>
<path d="M8.60938 7.71875H8.3125V8.01562H8.60938V7.71875Z" fill="#02015D"/>
<path d="M8.90625 7.71875H8.60938V8.01562H8.90625V7.71875Z" fill="#02015D"/>
<path d="M9.20312 7.71875H8.90625V8.01562H9.20312V7.71875Z" fill="#02015D"/>
<path d="M9.5 7.71875H9.20312V8.01562H9.5V7.71875Z" fill="#02015D"/>
<path d="M9.79688 7.71875H9.5V8.01562H9.79688V7.71875Z" fill="#02015D"/>
<path d="M10.0938 7.71875H9.79688V8.01562H10.0938V7.71875Z" fill="#02015D"/>
<path d="M10.3906 7.71875H10.0938V8.01562H10.3906V7.71875Z" fill="#02015D"/>
<path d="M10.6875 7.71875H10.3906V8.01562H10.6875V7.71875Z" fill="#02015D"/>
<path d="M10.9844 7.71875H10.6875V8.01562H10.9844V7.71875Z" fill="#02015D"/>
<path d="M11.2812 7.71875H10.9844V8.01562H11.2812V7.71875Z" fill="#02015D"/>
<path d="M11.5781 7.71875H11.2812V8.01562H11.5781V7.71875Z" fill="#02015D"/>
<path d="M11.875 7.71875H11.5781V8.01562H11.875V7.71875Z" fill="#02015D"/>
<path d="M12.1719 7.71875H11.875V8.01562H12.1719V7.71875Z" fill="#02015D"/>
<path d="M12.4688 7.71875H12.1719V8.01562H12.4688V7.71875Z" fill="#02015D"/>
<path d="M12.7656 7.71875H12.4688V8.01562H12.7656V7.71875Z" fill="#02015D"/>
<path d="M13.0625 7.71875H12.7656V8.01562H13.0625V7.71875Z" fill="#02015D"/>
<path d="M13.3594 7.71875H13.0625V8.01562H13.3594V7.71875Z" fill="#02015D"/>
<path d="M13.6562 7.71875H13.3594V8.01562H13.6562V7.71875Z" fill="#02015D"/>
<path d="M13.9531 7.71875H13.6562V8.01562H13.9531V7.71875Z" fill="#02015D"/>
<path d="M14.25 7.71875H13.9531V8.01562H14.25V7.71875Z" fill="#02015D"/>
<path d="M14.5469 7.71875H14.25V8.01562H14.5469V7.71875Z" fill="#02015D"/>
<path d="M14.8438 7.71875H14.5469V8.01562H14.8438V7.71875Z" fill="#02015D"/>
<path d="M15.1406 7.71875H14.8438V8.01562H15.1406V7.71875Z" fill="#02015D"/>
<path d="M15.4375 7.71875H15.1406V8.01562H15.4375V7.71875Z" fill="#02015D"/>
<path d="M15.7344 7.71875H15.4375V8.01562H15.7344V7.71875Z" fill="#02015D"/>
<path d="M16.0312 7.71875H15.7344V8.01562H16.0312V7.71875Z" fill="#02015D"/>
<path d="M16.3281 7.71875H16.0312V8.01562H16.3281V7.71875Z" fill="#02015D"/>
<path d="M16.625 7.71875H16.3281V8.01562H16.625V7.71875Z" fill="#02015D"/>
<path d="M16.9219 7.71875H16.625V8.01562H16.9219V7.71875Z" fill="#02015D"/>
<path d="M17.2188 7.71875H16.9219V8.01562H17.2188V7.71875Z" fill="#02015D"/>
<path d="M17.5156 7.71875H17.2188V8.01562H17.5156V7.71875Z" fill="#02015D"/>
<path d="M1.78125 8.01562H1.48438V8.3125H1.78125V8.01562Z" fill="#02015D"/>
<path d="M2.07812 8.01562H1.78125V8.3125H2.07812V8.01562Z" fill="#02015D"/>
<path d="M2.375 8.01562H2.07812V8.3125H2.375V8.01562Z" fill="#02015D"/>
<path d="M2.67188 8.01562H2.375V8.3125H2.67188V8.01562Z" fill="#02015D"/>
<path d="M2.96875 8.01562H2.67188V8.3125H2.96875V8.01562Z" fill="#02015D"/>
<path d="M3.26562 8.01562H2.96875V8.3125H3.26562V8.01562Z" fill="#02015D"/>
<path d="M3.5625 8.01562H3.26562V8.3125H3.5625V8.01562Z" fill="#02015D"/>
<path d="M3.85938 8.01562H3.5625V8.3125H3.85938V8.01562Z" fill="#02015D"/>
<path d="M7.42188 8.01562H7.125V8.3125H7.42188V8.01562Z" fill="#02015D"/>
<path d="M7.71875 8.01562H7.42188V8.3125H7.71875V8.01562Z" fill="#02015D"/>
<path d="M8.01562 8.01562H7.71875V8.3125H8.01562V8.01562Z" fill="#02015D"/>
<path d="M8.3125 8.01562H8.01562V8.3125H8.3125V8.01562Z" fill="#02015D"/>
<path d="M8.60938 8.01562H8.3125V8.3125H8.60938V8.01562Z" fill="#02015D"/>
<path d="M8.90625 8.01562H8.60938V8.3125H8.90625V8.01562Z" fill="#02015D"/>
<path d="M9.20312 8.01562H8.90625V8.3125H9.20312V8.01562Z" fill="#02015D"/>
<path d="M9.5 8.01562H9.20312V8.3125H9.5V8.01562Z" fill="#02015D"/>
<path d="M9.79688 8.01562H9.5V8.3125H9.79688V8.01562Z" fill="#02015D"/>
<path d="M10.0938 8.01562H9.79688V8.3125H10.0938V8.01562Z" fill="#02015D"/>
<path d="M10.3906 8.01562H10.0938V8.3125H10.3906V8.01562Z" fill="#02015D"/>
<path d="M10.6875 8.01562H10.3906V8.3125H10.6875V8.01562Z" fill="#02015D"/>
<path d="M10.9844 8.01562H10.6875V8.3125H10.9844V8.01562Z" fill="#02015D"/>
<path d="M11.2812 8.01562H10.9844V8.3125H11.2812V8.01562Z" fill="#02015D"/>
<path d="M11.5781 8.01562H11.2812V8.3125H11.5781V8.01562Z" fill="#02015D"/>
<path d="M11.875 8.01562H11.5781V8.3125H11.875V8.01562Z" fill="#02015D"/>
<path d="M15.4375 8.01562H15.1406V8.3125H15.4375V8.01562Z" fill="#02015D"/>
<path d="M15.7344 8.01562H15.4375V8.3125H15.7344V8.01562Z" fill="#02015D"/>
<path d="M16.0312 8.01562H15.7344V8.3125H16.0312V8.01562Z" fill="#02015D"/>
<path d="M16.3281 8.01562H16.0312V8.3125H16.3281V8.01562Z" fill="#02015D"/>
<path d="M16.625 8.01562H16.3281V8.3125H16.625V8.01562Z" fill="#02015D"/>
<path d="M16.9219 8.01562H16.625V8.3125H16.9219V8.01562Z" fill="#02015D"/>
<path d="M17.2188 8.01562H16.9219V8.3125H17.2188V8.01562Z" fill="#02015D"/>
<path d="M17.5156 8.01562H17.2188V8.3125H17.5156V8.01562Z" fill="#02015D"/>
<path d="M1.78125 8.3125H1.48438V8.60938H1.78125V8.3125Z" fill="#02015D"/>
<path d="M2.07812 8.3125H1.78125V8.60938H2.07812V8.3125Z" fill="#02015D"/>
<path d="M2.375 8.3125H2.07812V8.60938H2.375V8.3125Z" fill="#02015D"/>
<path d="M2.67188 8.3125H2.375V8.60938H2.67188V8.3125Z" fill="#02015D"/>
<path d="M2.96875 8.3125H2.67188V8.60938H2.96875V8.3125Z" fill="#02015D"/>
<path d="M3.26562 8.3125H2.96875V8.60938H3.26562V8.3125Z" fill="#02015D"/>
<path d="M3.5625 8.3125H3.26562V8.60938H3.5625V8.3125Z" fill="#02015D"/>
<path d="M3.85938 8.3125H3.5625V8.60938H3.85938V8.3125Z" fill="#02015D"/>
<path d="M7.42188 8.3125H7.125V8.60938H7.42188V8.3125Z" fill="#02015D"/>
<path d="M7.71875 8.3125H7.42188V8.60938H7.71875V8.3125Z" fill="#02015D"/>
<path d="M8.01562 8.3125H7.71875V8.60938H8.01562V8.3125Z" fill="#02015D"/>
<path d="M8.3125 8.3125H8.01562V8.60938H8.3125V8.3125Z" fill="#02015D"/>
<path d="M8.60938 8.3125H8.3125V8.60938H8.60938V8.3125Z" fill="#02015D"/>
<path d="M8.90625 8.3125H8.60938V8.60938H8.90625V8.3125Z" fill="#02015D"/>
<path d="M9.20312 8.3125H8.90625V8.60938H9.20312V8.3125Z" fill="#02015D"/>
<path d="M9.5 8.3125H9.20312V8.60938H9.5V8.3125Z" fill="#02015D"/>
<path d="M9.79688 8.3125H9.5V8.60938H9.79688V8.3125Z" fill="#02015D"/>
<path d="M10.0938 8.3125H9.79688V8.60938H10.0938V8.3125Z" fill="#02015D"/>
<path d="M10.3906 8.3125H10.0938V8.60938H10.3906V8.3125Z" fill="#02015D"/>
<path d="M10.6875 8.3125H10.3906V8.60938H10.6875V8.3125Z" fill="#02015D"/>
<path d="M10.9844 8.3125H10.6875V8.60938H10.9844V8.3125Z" fill="#02015D"/>
<path d="M11.2812 8.3125H10.9844V8.60938H11.2812V8.3125Z" fill="#02015D"/>
<path d="M11.5781 8.3125H11.2812V8.60938H11.5781V8.3125Z" fill="#02015D"/>
<path d="M11.875 8.3125H11.5781V8.60938H11.875V8.3125Z" fill="#02015D"/>
<path d="M15.4375 8.3125H15.1406V8.60938H15.4375V8.3125Z" fill="#02015D"/>
<path d="M15.7344 8.3125H15.4375V8.60938H15.7344V8.3125Z" fill="#02015D"/>
<path d="M16.0312 8.3125H15.7344V8.60938H16.0312V8.3125Z" fill="#02015D"/>
<path d="M16.3281 8.3125H16.0312V8.60938H16.3281V8.3125Z" fill="#02015D"/>
<path d="M16.625 8.3125H16.3281V8.60938H16.625V8.3125Z" fill="#02015D"/>
<path d="M16.9219 8.3125H16.625V8.60938H16.9219V8.3125Z" fill="#02015D"/>
<path d="M17.2188 8.3125H16.9219V8.60938H17.2188V8.3125Z" fill="#02015D"/>
<path d="M17.5156 8.3125H17.2188V8.60938H17.5156V8.3125Z" fill="#02015D"/>
<path d="M1.78125 8.60938H1.48438V8.90625H1.78125V8.60938Z" fill="#02015D"/>
<path d="M2.07812 8.60938H1.78125V8.90625H2.07812V8.60938Z" fill="#02015D"/>
<path d="M2.375 8.60938H2.07812V8.90625H2.375V8.60938Z" fill="#02015D"/>
<path d="M2.67188 8.60938H2.375V8.90625H2.67188V8.60938Z" fill="#02015D"/>
<path d="M2.96875 8.60938H2.67188V8.90625H2.96875V8.60938Z" fill="#02015D"/>
<path d="M3.26562 8.60938H2.96875V8.90625H3.26562V8.60938Z" fill="#02015D"/>
<path d="M3.5625 8.60938H3.26562V8.90625H3.5625V8.60938Z" fill="#02015D"/>
<path d="M3.85938 8.60938H3.5625V8.90625H3.85938V8.60938Z" fill="#02015D"/>
<path d="M8.3125 8.60938H8.01562V8.90625H8.3125V8.60938Z" fill="#02015D"/>
<path d="M8.60938 8.60938H8.3125V8.90625H8.60938V8.60938Z" fill="#02015D"/>
<path d="M8.90625 8.60938H8.60938V8.90625H8.90625V8.60938Z" fill="#02015D"/>
<path d="M9.20312 8.60938H8.90625V8.90625H9.20312V8.60938Z" fill="#02015D"/>
<path d="M9.5 8.60938H9.20312V8.90625H9.5V8.60938Z" fill="#02015D"/>
<path d="M9.79688 8.60938H9.5V8.90625H9.79688V8.60938Z" fill="#02015D"/>
<path d="M10.0938 8.60938H9.79688V8.90625H10.0938V8.60938Z" fill="#02015D"/>
<path d="M10.3906 8.60938H10.0938V8.90625H10.3906V8.60938Z" fill="#02015D"/>
<path d="M10.6875 8.60938H10.3906V8.90625H10.6875V8.60938Z" fill="#02015D"/>
<path d="M10.9844 8.60938H10.6875V8.90625H10.9844V8.60938Z" fill="#02015D"/>
<path d="M15.4375 8.60938H15.1406V8.90625H15.4375V8.60938Z" fill="#02015D"/>
<path d="M15.7344 8.60938H15.4375V8.90625H15.7344V8.60938Z" fill="#02015D"/>
<path d="M16.0312 8.60938H15.7344V8.90625H16.0312V8.60938Z" fill="#02015D"/>
<path d="M16.3281 8.60938H16.0312V8.90625H16.3281V8.60938Z" fill="#02015D"/>
<path d="M16.625 8.60938H16.3281V8.90625H16.625V8.60938Z" fill="#02015D"/>
<path d="M16.9219 8.60938H16.625V8.90625H16.9219V8.60938Z" fill="#02015D"/>
<path d="M17.2188 8.60938H16.9219V8.90625H17.2188V8.60938Z" fill="#02015D"/>
<path d="M17.5156 8.60938H17.2188V8.90625H17.5156V8.60938Z" fill="#02015D"/>
<path d="M1.78125 8.90625H1.48438V9.20312H1.78125V8.90625Z" fill="#02015D"/>
<path d="M2.07812 8.90625H1.78125V9.20312H2.07812V8.90625Z" fill="#02015D"/>
<path d="M2.375 8.90625H2.07812V9.20312H2.375V8.90625Z" fill="#02015D"/>
<path d="M2.67188 8.90625H2.375V9.20312H2.67188V8.90625Z" fill="#02015D"/>
<path d="M2.96875 8.90625H2.67188V9.20312H2.96875V8.90625Z" fill="#02015D"/>
<path d="M3.26562 8.90625H2.96875V9.20312H3.26562V8.90625Z" fill="#02015D"/>
<path d="M3.5625 8.90625H3.26562V9.20312H3.5625V8.90625Z" fill="#02015D"/>
<path d="M3.85938 8.90625H3.5625V9.20312H3.85938V8.90625Z" fill="#02015D"/>
<path d="M8.3125 8.90625H8.01562V9.20312H8.3125V8.90625Z" fill="#02015D"/>
<path d="M8.60938 8.90625H8.3125V9.20312H8.60938V8.90625Z" fill="#02015D"/>
<path d="M8.90625 8.90625H8.60938V9.20312H8.90625V8.90625Z" fill="#02015D"/>
<path d="M9.20312 8.90625H8.90625V9.20312H9.20312V8.90625Z" fill="#02015D"/>
<path d="M9.5 8.90625H9.20312V9.20312H9.5V8.90625Z" fill="#02015D"/>
<path d="M9.79688 8.90625H9.5V9.20312H9.79688V8.90625Z" fill="#02015D"/>
<path d="M10.0938 8.90625H9.79688V9.20312H10.0938V8.90625Z" fill="#02015D"/>
<path d="M10.3906 8.90625H10.0938V9.20312H10.3906V8.90625Z" fill="#02015D"/>
<path d="M10.6875 8.90625H10.3906V9.20312H10.6875V8.90625Z" fill="#02015D"/>
<path d="M10.9844 8.90625H10.6875V9.20312H10.9844V8.90625Z" fill="#02015D"/>
<path d="M15.4375 8.90625H15.1406V9.20312H15.4375V8.90625Z" fill="#02015D"/>
<path d="M15.7344 8.90625H15.4375V9.20312H15.7344V8.90625Z" fill="#02015D"/>
<path d="M16.0312 8.90625H15.7344V9.20312H16.0312V8.90625Z" fill="#02015D"/>
<path d="M16.3281 8.90625H16.0312V9.20312H16.3281V8.90625Z" fill="#02015D"/>
<path d="M16.625 8.90625H16.3281V9.20312H16.625V8.90625Z" fill="#02015D"/>
<path d="M16.9219 8.90625H16.625V9.20312H16.9219V8.90625Z" fill="#02015D"/>
<path d="M17.2188 8.90625H16.9219V9.20312H17.2188V8.90625Z" fill="#02015D"/>
<path d="M17.5156 8.90625H17.2188V9.20312H17.5156V8.90625Z" fill="#02015D"/>
<path d="M1.78125 9.20312H1.48438V9.5H1.78125V9.20312Z" fill="#02015D"/>
<path d="M2.07812 9.20312H1.78125V9.5H2.07812V9.20312Z" fill="#02015D"/>
<path d="M2.375 9.20312H2.07812V9.5H2.375V9.20312Z" fill="#02015D"/>
<path d="M2.67188 9.20312H2.375V9.5H2.67188V9.20312Z" fill="#02015D"/>
<path d="M2.96875 9.20312H2.67188V9.5H2.96875V9.20312Z" fill="#02015D"/>
<path d="M3.26562 9.20312H2.96875V9.5H3.26562V9.20312Z" fill="#02015D"/>
<path d="M3.5625 9.20312H3.26562V9.5H3.5625V9.20312Z" fill="#02015D"/>
<path d="M3.85938 9.20312H3.5625V9.5H3.85938V9.20312Z" fill="#02015D"/>
<path d="M8.3125 9.20312H8.01562V9.5H8.3125V9.20312Z" fill="#02015D"/>
<path d="M8.60938 9.20312H8.3125V9.5H8.60938V9.20312Z" fill="#02015D"/>
<path d="M8.90625 9.20312H8.60938V9.5H8.90625V9.20312Z" fill="#02015D"/>
<path d="M9.20312 9.20312H8.90625V9.5H9.20312V9.20312Z" fill="#02015D"/>
<path d="M9.5 9.20312H9.20312V9.5H9.5V9.20312Z" fill="#02015D"/>
<path d="M9.79688 9.20312H9.5V9.5H9.79688V9.20312Z" fill="#02015D"/>
<path d="M10.0938 9.20312H9.79688V9.5H10.0938V9.20312Z" fill="#02015D"/>
<path d="M10.3906 9.20312H10.0938V9.5H10.3906V9.20312Z" fill="#02015D"/>
<path d="M10.6875 9.20312H10.3906V9.5H10.6875V9.20312Z" fill="#02015D"/>
<path d="M10.9844 9.20312H10.6875V9.5H10.9844V9.20312Z" fill="#02015D"/>
<path d="M15.4375 9.20312H15.1406V9.5H15.4375V9.20312Z" fill="#02015D"/>
<path d="M15.7344 9.20312H15.4375V9.5H15.7344V9.20312Z" fill="#02015D"/>
<path d="M16.0312 9.20312H15.7344V9.5H16.0312V9.20312Z" fill="#02015D"/>
<path d="M16.3281 9.20312H16.0312V9.5H16.3281V9.20312Z" fill="#02015D"/>
<path d="M16.625 9.20312H16.3281V9.5H16.625V9.20312Z" fill="#02015D"/>
<path d="M16.9219 9.20312H16.625V9.5H16.9219V9.20312Z" fill="#02015D"/>
<path d="M17.2188 9.20312H16.9219V9.5H17.2188V9.20312Z" fill="#02015D"/>
<path d="M17.5156 9.20312H17.2188V9.5H17.5156V9.20312Z" fill="#02015D"/>
<path d="M1.78125 9.5H1.48438V9.79688H1.78125V9.5Z" fill="#02015D"/>
<path d="M2.07812 9.5H1.78125V9.79688H2.07812V9.5Z" fill="#02015D"/>
<path d="M2.375 9.5H2.07812V9.79688H2.375V9.5Z" fill="#02015D"/>
<path d="M2.67188 9.5H2.375V9.79688H2.67188V9.5Z" fill="#02015D"/>
<path d="M2.96875 9.5H2.67188V9.79688H2.96875V9.5Z" fill="#02015D"/>
<path d="M3.26562 9.5H2.96875V9.79688H3.26562V9.5Z" fill="#02015D"/>
<path d="M3.5625 9.5H3.26562V9.79688H3.5625V9.5Z" fill="#02015D"/>
<path d="M3.85938 9.5H3.5625V9.79688H3.85938V9.5Z" fill="#02015D"/>
<path d="M8.3125 9.5H8.01562V9.79688H8.3125V9.5Z" fill="#02015D"/>
<path d="M8.60938 9.5H8.3125V9.79688H8.60938V9.5Z" fill="#02015D"/>
<path d="M8.90625 9.5H8.60938V9.79688H8.90625V9.5Z" fill="#02015D"/>
<path d="M9.20312 9.5H8.90625V9.79688H9.20312V9.5Z" fill="#02015D"/>
<path d="M9.5 9.5H9.20312V9.79688H9.5V9.5Z" fill="#02015D"/>
<path d="M9.79688 9.5H9.5V9.79688H9.79688V9.5Z" fill="#02015D"/>
<path d="M10.0938 9.5H9.79688V9.79688H10.0938V9.5Z" fill="#02015D"/>
<path d="M10.3906 9.5H10.0938V9.79688H10.3906V9.5Z" fill="#02015D"/>
<path d="M10.6875 9.5H10.3906V9.79688H10.6875V9.5Z" fill="#02015D"/>
<path d="M10.9844 9.5H10.6875V9.79688H10.9844V9.5Z" fill="#02015D"/>
<path d="M15.4375 9.5H15.1406V9.79688H15.4375V9.5Z" fill="#02015D"/>
<path d="M15.7344 9.5H15.4375V9.79688H15.7344V9.5Z" fill="#02015D"/>
<path d="M16.0312 9.5H15.7344V9.79688H16.0312V9.5Z" fill="#02015D"/>
<path d="M16.3281 9.5H16.0312V9.79688H16.3281V9.5Z" fill="#02015D"/>
<path d="M16.625 9.5H16.3281V9.79688H16.625V9.5Z" fill="#02015D"/>
<path d="M16.9219 9.5H16.625V9.79688H16.9219V9.5Z" fill="#02015D"/>
<path d="M17.2188 9.5H16.9219V9.79688H17.2188V9.5Z" fill="#02015D"/>
<path d="M17.5156 9.5H17.2188V9.79688H17.5156V9.5Z" fill="#02015D"/>
<path d="M1.78125 9.79688H1.48438V10.0938H1.78125V9.79688Z" fill="#02015D"/>
<path d="M2.07812 9.79688H1.78125V10.0938H2.07812V9.79688Z" fill="#02015D"/>
<path d="M2.375 9.79688H2.07812V10.0938H2.375V9.79688Z" fill="#02015D"/>
<path d="M2.67188 9.79688H2.375V10.0938H2.67188V9.79688Z" fill="#02015D"/>
<path d="M2.96875 9.79688H2.67188V10.0938H2.96875V9.79688Z" fill="#02015D"/>
<path d="M3.26562 9.79688H2.96875V10.0938H3.26562V9.79688Z" fill="#02015D"/>
<path d="M3.5625 9.79688H3.26562V10.0938H3.5625V9.79688Z" fill="#02015D"/>
<path d="M3.85938 9.79688H3.5625V10.0938H3.85938V9.79688Z" fill="#02015D"/>
<path d="M8.3125 9.79688H8.01562V10.0938H8.3125V9.79688Z" fill="#02015D"/>
<path d="M8.60938 9.79688H8.3125V10.0938H8.60938V9.79688Z" fill="#02015D"/>
<path d="M8.90625 9.79688H8.60938V10.0938H8.90625V9.79688Z" fill="#02015D"/>
<path d="M9.20312 9.79688H8.90625V10.0938H9.20312V9.79688Z" fill="#02015D"/>
<path d="M9.5 9.79688H9.20312V10.0938H9.5V9.79688Z" fill="#02015D"/>
<path d="M9.79688 9.79688H9.5V10.0938H9.79688V9.79688Z" fill="#02015D"/>
<path d="M10.0938 9.79688H9.79688V10.0938H10.0938V9.79688Z" fill="#02015D"/>
<path d="M10.3906 9.79688H10.0938V10.0938H10.3906V9.79688Z" fill="#02015D"/>
<path d="M10.6875 9.79688H10.3906V10.0938H10.6875V9.79688Z" fill="#02015D"/>
<path d="M10.9844 9.79688H10.6875V10.0938H10.9844V9.79688Z" fill="#02015D"/>
<path d="M15.4375 9.79688H15.1406V10.0938H15.4375V9.79688Z" fill="#02015D"/>
<path d="M15.7344 9.79688H15.4375V10.0938H15.7344V9.79688Z" fill="#02015D"/>
<path d="M16.0312 9.79688H15.7344V10.0938H16.0312V9.79688Z" fill="#02015D"/>
<path d="M16.3281 9.79688H16.0312V10.0938H16.3281V9.79688Z" fill="#02015D"/>
<path d="M16.625 9.79688H16.3281V10.0938H16.625V9.79688Z" fill="#02015D"/>
<path d="M16.9219 9.79688H16.625V10.0938H16.9219V9.79688Z" fill="#02015D"/>
<path d="M17.2188 9.79688H16.9219V10.0938H17.2188V9.79688Z" fill="#02015D"/>
<path d="M17.5156 9.79688H17.2188V10.0938H17.5156V9.79688Z" fill="#02015D"/>
<path d="M1.78125 10.0938H1.48438V10.3906H1.78125V10.0938Z" fill="#02015D"/>
<path d="M2.07812 10.0938H1.78125V10.3906H2.07812V10.0938Z" fill="#02015D"/>
<path d="M2.375 10.0938H2.07812V10.3906H2.375V10.0938Z" fill="#02015D"/>
<path d="M2.67188 10.0938H2.375V10.3906H2.67188V10.0938Z" fill="#02015D"/>
<path d="M2.96875 10.0938H2.67188V10.3906H2.96875V10.0938Z" fill="#02015D"/>
<path d="M3.26562 10.0938H2.96875V10.3906H3.26562V10.0938Z" fill="#02015D"/>
<path d="M3.5625 10.0938H3.26562V10.3906H3.5625V10.0938Z" fill="#02015D"/>
<path d="M3.85938 10.0938H3.5625V10.3906H3.85938V10.0938Z" fill="#02015D"/>
<path d="M8.3125 10.0938H8.01562V10.3906H8.3125V10.0938Z" fill="#02015D"/>
<path d="M8.60938 10.0938H8.3125V10.3906H8.60938V10.0938Z" fill="#02015D"/>
<path d="M8.90625 10.0938H8.60938V10.3906H8.90625V10.0938Z" fill="#02015D"/>
<path d="M9.20312 10.0938H8.90625V10.3906H9.20312V10.0938Z" fill="#02015D"/>
<path d="M9.5 10.0938H9.20312V10.3906H9.5V10.0938Z" fill="#02015D"/>
<path d="M9.79688 10.0938H9.5V10.3906H9.79688V10.0938Z" fill="#02015D"/>
<path d="M10.0938 10.0938H9.79688V10.3906H10.0938V10.0938Z" fill="#02015D"/>
<path d="M10.3906 10.0938H10.0938V10.3906H10.3906V10.0938Z" fill="#02015D"/>
<path d="M10.6875 10.0938H10.3906V10.3906H10.6875V10.0938Z" fill="#02015D"/>
<path d="M10.9844 10.0938H10.6875V10.3906H10.9844V10.0938Z" fill="#02015D"/>
<path d="M15.4375 10.0938H15.1406V10.3906H15.4375V10.0938Z" fill="#02015D"/>
<path d="M15.7344 10.0938H15.4375V10.3906H15.7344V10.0938Z" fill="#02015D"/>
<path d="M16.0312 10.0938H15.7344V10.3906H16.0312V10.0938Z" fill="#02015D"/>
<path d="M16.3281 10.0938H16.0312V10.3906H16.3281V10.0938Z" fill="#02015D"/>
<path d="M16.625 10.0938H16.3281V10.3906H16.625V10.0938Z" fill="#02015D"/>
<path d="M16.9219 10.0938H16.625V10.3906H16.9219V10.0938Z" fill="#02015D"/>
<path d="M17.2188 10.0938H16.9219V10.3906H17.2188V10.0938Z" fill="#02015D"/>
<path d="M17.5156 10.0938H17.2188V10.3906H17.5156V10.0938Z" fill="#02015D"/>
<path d="M1.78125 10.3906H1.48438V10.6875H1.78125V10.3906Z" fill="#02015D"/>
<path d="M2.07812 10.3906H1.78125V10.6875H2.07812V10.3906Z" fill="#02015D"/>
<path d="M2.375 10.3906H2.07812V10.6875H2.375V10.3906Z" fill="#02015D"/>
<path d="M2.67188 10.3906H2.375V10.6875H2.67188V10.3906Z" fill="#02015D"/>
<path d="M2.96875 10.3906H2.67188V10.6875H2.96875V10.3906Z" fill="#02015D"/>
<path d="M3.26562 10.3906H2.96875V10.6875H3.26562V10.3906Z" fill="#02015D"/>
<path d="M3.5625 10.3906H3.26562V10.6875H3.5625V10.3906Z" fill="#02015D"/>
<path d="M3.85938 10.3906H3.5625V10.6875H3.85938V10.3906Z" fill="#02015D"/>
<path d="M7.42188 10.3906H7.125V10.6875H7.42188V10.3906Z" fill="#02015D"/>
<path d="M7.71875 10.3906H7.42188V10.6875H7.71875V10.3906Z" fill="#02015D"/>
<path d="M8.01562 10.3906H7.71875V10.6875H8.01562V10.3906Z" fill="#02015D"/>
<path d="M8.3125 10.3906H8.01562V10.6875H8.3125V10.3906Z" fill="#02015D"/>
<path d="M8.60938 10.3906H8.3125V10.6875H8.60938V10.3906Z" fill="#02015D"/>
<path d="M8.90625 10.3906H8.60938V10.6875H8.90625V10.3906Z" fill="#02015D"/>
<path d="M9.20312 10.3906H8.90625V10.6875H9.20312V10.3906Z" fill="#02015D"/>
<path d="M9.5 10.3906H9.20312V10.6875H9.5V10.3906Z" fill="#02015D"/>
<path d="M9.79688 10.3906H9.5V10.6875H9.79688V10.3906Z" fill="#02015D"/>
<path d="M10.0938 10.3906H9.79688V10.6875H10.0938V10.3906Z" fill="#02015D"/>
<path d="M10.3906 10.3906H10.0938V10.6875H10.3906V10.3906Z" fill="#02015D"/>
<path d="M10.6875 10.3906H10.3906V10.6875H10.6875V10.3906Z" fill="#02015D"/>
<path d="M10.9844 10.3906H10.6875V10.6875H10.9844V10.3906Z" fill="#02015D"/>
<path d="M11.2812 10.3906H10.9844V10.6875H11.2812V10.3906Z" fill="#02015D"/>
<path d="M11.5781 10.3906H11.2812V10.6875H11.5781V10.3906Z" fill="#02015D"/>
<path d="M11.875 10.3906H11.5781V10.6875H11.875V10.3906Z" fill="#02015D"/>
<path d="M15.4375 10.3906H15.1406V10.6875H15.4375V10.3906Z" fill="#02015D"/>
<path d="M15.7344 10.3906H15.4375V10.6875H15.7344V10.3906Z" fill="#02015D"/>
<path d="M16.0312 10.3906H15.7344V10.6875H16.0312V10.3906Z" fill="#02015D"/>
<path d="M16.3281 10.3906H16.0312V10.6875H16.3281V10.3906Z" fill="#02015D"/>
<path d="M16.625 10.3906H16.3281V10.6875H16.625V10.3906Z" fill="#02015D"/>
<path d="M16.9219 10.3906H16.625V10.6875H16.9219V10.3906Z" fill="#02015D"/>
<path d="M17.2188 10.3906H16.9219V10.6875H17.2188V10.3906Z" fill="#02015D"/>
<path d="M17.5156 10.3906H17.2188V10.6875H17.5156V10.3906Z" fill="#02015D"/>
<path d="M1.78125 10.6875H1.48438V10.9844H1.78125V10.6875Z" fill="#02015D"/>
<path d="M2.07812 10.6875H1.78125V10.9844H2.07812V10.6875Z" fill="#02015D"/>
<path d="M2.375 10.6875H2.07812V10.9844H2.375V10.6875Z" fill="#02015D"/>
<path d="M2.67188 10.6875H2.375V10.9844H2.67188V10.6875Z" fill="#02015D"/>
<path d="M2.96875 10.6875H2.67188V10.9844H2.96875V10.6875Z" fill="#02015D"/>
<path d="M3.26562 10.6875H2.96875V10.9844H3.26562V10.6875Z" fill="#02015D"/>
<path d="M3.5625 10.6875H3.26562V10.9844H3.5625V10.6875Z" fill="#02015D"/>
<path d="M3.85938 10.6875H3.5625V10.9844H3.85938V10.6875Z" fill="#02015D"/>
<path d="M7.42188 10.6875H7.125V10.9844H7.42188V10.6875Z" fill="#02015D"/>
<path d="M7.71875 10.6875H7.42188V10.9844H7.71875V10.6875Z" fill="#02015D"/>
<path d="M8.01562 10.6875H7.71875V10.9844H8.01562V10.6875Z" fill="#02015D"/>
<path d="M8.3125 10.6875H8.01562V10.9844H8.3125V10.6875Z" fill="#02015D"/>
<path d="M8.60938 10.6875H8.3125V10.9844H8.60938V10.6875Z" fill="#02015D"/>
<path d="M8.90625 10.6875H8.60938V10.9844H8.90625V10.6875Z" fill="#02015D"/>
<path d="M9.20312 10.6875H8.90625V10.9844H9.20312V10.6875Z" fill="#02015D"/>
<path d="M9.5 10.6875H9.20312V10.9844H9.5V10.6875Z" fill="#02015D"/>
<path d="M9.79688 10.6875H9.5V10.9844H9.79688V10.6875Z" fill="#02015D"/>
<path d="M10.0938 10.6875H9.79688V10.9844H10.0938V10.6875Z" fill="#02015D"/>
<path d="M10.3906 10.6875H10.0938V10.9844H10.3906V10.6875Z" fill="#02015D"/>
<path d="M10.6875 10.6875H10.3906V10.9844H10.6875V10.6875Z" fill="#02015D"/>
<path d="M10.9844 10.6875H10.6875V10.9844H10.9844V10.6875Z" fill="#02015D"/>
<path d="M11.2812 10.6875H10.9844V10.9844H11.2812V10.6875Z" fill="#02015D"/>
<path d="M11.5781 10.6875H11.2812V10.9844H11.5781V10.6875Z" fill="#02015D"/>
<path d="M11.875 10.6875H11.5781V10.9844H11.875V10.6875Z" fill="#02015D"/>
<path d="M15.4375 10.6875H15.1406V10.9844H15.4375V10.6875Z" fill="#02015D"/>
<path d="M15.7344 10.6875H15.4375V10.9844H15.7344V10.6875Z" fill="#02015D"/>
<path d="M16.0312 10.6875H15.7344V10.9844H16.0312V10.6875Z" fill="#02015D"/>
<path d="M16.3281 10.6875H16.0312V10.9844H16.3281V10.6875Z" fill="#02015D"/>
<path d="M16.625 10.6875H16.3281V10.9844H16.625V10.6875Z" fill="#02015D"/>
<path d="M16.9219 10.6875H16.625V10.9844H16.9219V10.6875Z" fill="#02015D"/>
<path d="M17.2188 10.6875H16.9219V10.9844H17.2188V10.6875Z" fill="#02015D"/>
<path d="M17.5156 10.6875H17.2188V10.9844H17.5156V10.6875Z" fill="#02015D"/>
<path d="M1.78125 10.9844H1.48438V11.2812H1.78125V10.9844Z" fill="#02015D"/>
<path d="M2.07812 10.9844H1.78125V11.2812H2.07812V10.9844Z" fill="#02015D"/>
<path d="M2.375 10.9844H2.07812V11.2812H2.375V10.9844Z" fill="#02015D"/>
<path d="M2.67188 10.9844H2.375V11.2812H2.67188V10.9844Z" fill="#02015D"/>
<path d="M2.96875 10.9844H2.67188V11.2812H2.96875V10.9844Z" fill="#02015D"/>
<path d="M3.26562 10.9844H2.96875V11.2812H3.26562V10.9844Z" fill="#02015D"/>
<path d="M3.5625 10.9844H3.26562V11.2812H3.5625V10.9844Z" fill="#02015D"/>
<path d="M3.85938 10.9844H3.5625V11.2812H3.85938V10.9844Z" fill="#02015D"/>
<path d="M4.15625 10.9844H3.85938V11.2812H4.15625V10.9844Z" fill="#02015D"/>
<path d="M4.45312 10.9844H4.15625V11.2812H4.45312V10.9844Z" fill="#02015D"/>
<path d="M4.75 10.9844H4.45312V11.2812H4.75V10.9844Z" fill="#02015D"/>
<path d="M5.04688 10.9844H4.75V11.2812H5.04688V10.9844Z" fill="#02015D"/>
<path d="M5.34375 10.9844H5.04688V11.2812H5.34375V10.9844Z" fill="#02015D"/>
<path d="M5.64062 10.9844H5.34375V11.2812H5.64062V10.9844Z" fill="#02015D"/>
<path d="M5.9375 10.9844H5.64062V11.2812H5.9375V10.9844Z" fill="#02015D"/>
<path d="M6.23438 10.9844H5.9375V11.2812H6.23438V10.9844Z" fill="#02015D"/>
<path d="M6.53125 10.9844H6.23438V11.2812H6.53125V10.9844Z" fill="#02015D"/>
<path d="M6.82812 10.9844H6.53125V11.2812H6.82812V10.9844Z" fill="#02015D"/>
<path d="M7.125 10.9844H6.82812V11.2812H7.125V10.9844Z" fill="#02015D"/>
<path d="M7.42188 10.9844H7.125V11.2812H7.42188V10.9844Z" fill="#02015D"/>
<path d="M7.71875 10.9844H7.42188V11.2812H7.71875V10.9844Z" fill="#02015D"/>
<path d="M8.01562 10.9844H7.71875V11.2812H8.01562V10.9844Z" fill="#02015D"/>
<path d="M8.3125 10.9844H8.01562V11.2812H8.3125V10.9844Z" fill="#02015D"/>
<path d="M8.60938 10.9844H8.3125V11.2812H8.60938V10.9844Z" fill="#02015D"/>
<path d="M8.90625 10.9844H8.60938V11.2812H8.90625V10.9844Z" fill="#02015D"/>
<path d="M9.20312 10.9844H8.90625V11.2812H9.20312V10.9844Z" fill="#02015D"/>
<path d="M9.5 10.9844H9.20312V11.2812H9.5V10.9844Z" fill="#02015D"/>
<path d="M9.79688 10.9844H9.5V11.2812H9.79688V10.9844Z" fill="#02015D"/>
<path d="M10.0938 10.9844H9.79688V11.2812H10.0938V10.9844Z" fill="#02015D"/>
<path d="M10.3906 10.9844H10.0938V11.2812H10.3906V10.9844Z" fill="#02015D"/>
<path d="M10.6875 10.9844H10.3906V11.2812H10.6875V10.9844Z" fill="#02015D"/>
<path d="M10.9844 10.9844H10.6875V11.2812H10.9844V10.9844Z" fill="#02015D"/>
<path d="M11.2812 10.9844H10.9844V11.2812H11.2812V10.9844Z" fill="#02015D"/>
<path d="M11.5781 10.9844H11.2812V11.2812H11.5781V10.9844Z" fill="#02015D"/>
<path d="M11.875 10.9844H11.5781V11.2812H11.875V10.9844Z" fill="#02015D"/>
<path d="M12.1719 10.9844H11.875V11.2812H12.1719V10.9844Z" fill="#02015D"/>
<path d="M12.4688 10.9844H12.1719V11.2812H12.4688V10.9844Z" fill="#02015D"/>
<path d="M12.7656 10.9844H12.4688V11.2812H12.7656V10.9844Z" fill="#02015D"/>
<path d="M13.0625 10.9844H12.7656V11.2812H13.0625V10.9844Z" fill="#02015D"/>
<path d="M13.3594 10.9844H13.0625V11.2812H13.3594V10.9844Z" fill="#02015D"/>
<path d="M13.6562 10.9844H13.3594V11.2812H13.6562V10.9844Z" fill="#02015D"/>
<path d="M13.9531 10.9844H13.6562V11.2812H13.9531V10.9844Z" fill="#02015D"/>
<path d="M14.25 10.9844H13.9531V11.2812H14.25V10.9844Z" fill="#02015D"/>
<path d="M14.5469 10.9844H14.25V11.2812H14.5469V10.9844Z" fill="#02015D"/>
<path d="M14.8438 10.9844H14.5469V11.2812H14.8438V10.9844Z" fill="#02015D"/>
<path d="M15.1406 10.9844H14.8438V11.2812H15.1406V10.9844Z" fill="#02015D"/>
<path d="M15.4375 10.9844H15.1406V11.2812H15.4375V10.9844Z" fill="#02015D"/>
<path d="M15.7344 10.9844H15.4375V11.2812H15.7344V10.9844Z" fill="#02015D"/>
<path d="M16.0312 10.9844H15.7344V11.2812H16.0312V10.9844Z" fill="#02015D"/>
<path d="M16.3281 10.9844H16.0312V11.2812H16.3281V10.9844Z" fill="#02015D"/>
<path d="M16.625 10.9844H16.3281V11.2812H16.625V10.9844Z" fill="#02015D"/>
<path d="M16.9219 10.9844H16.625V11.2812H16.9219V10.9844Z" fill="#02015D"/>
<path d="M17.2188 10.9844H16.9219V11.2812H17.2188V10.9844Z" fill="#02015D"/>
<path d="M17.5156 10.9844H17.2188V11.2812H17.5156V10.9844Z" fill="#02015D"/>
<path d="M1.78125 11.2812H1.48438V11.5781H1.78125V11.2812Z" fill="#02015D"/>
<path d="M2.07812 11.2812H1.78125V11.5781H2.07812V11.2812Z" fill="#02015D"/>
<path d="M2.375 11.2812H2.07812V11.5781H2.375V11.2812Z" fill="#02015D"/>
<path d="M2.67188 11.2812H2.375V11.5781H2.67188V11.2812Z" fill="#02015D"/>
<path d="M2.96875 11.2812H2.67188V11.5781H2.96875V11.2812Z" fill="#02015D"/>
<path d="M3.26562 11.2812H2.96875V11.5781H3.26562V11.2812Z" fill="#02015D"/>
<path d="M3.5625 11.2812H3.26562V11.5781H3.5625V11.2812Z" fill="#02015D"/>
<path d="M3.85938 11.2812H3.5625V11.5781H3.85938V11.2812Z" fill="#02015D"/>
<path d="M4.15625 11.2812H3.85938V11.5781H4.15625V11.2812Z" fill="#02015D"/>
<path d="M4.45312 11.2812H4.15625V11.5781H4.45312V11.2812Z" fill="#02015D"/>
<path d="M4.75 11.2812H4.45312V11.5781H4.75V11.2812Z" fill="#02015D"/>
<path d="M5.04688 11.2812H4.75V11.5781H5.04688V11.2812Z" fill="#02015D"/>
<path d="M5.34375 11.2812H5.04688V11.5781H5.34375V11.2812Z" fill="#02015D"/>
<path d="M5.64062 11.2812H5.34375V11.5781H5.64062V11.2812Z" fill="#02015D"/>
<path d="M5.9375 11.2812H5.64062V11.5781H5.9375V11.2812Z" fill="#02015D"/>
<path d="M6.23438 11.2812H5.9375V11.5781H6.23438V11.2812Z" fill="#02015D"/>
<path d="M6.53125 11.2812H6.23438V11.5781H6.53125V11.2812Z" fill="#02015D"/>
<path d="M6.82812 11.2812H6.53125V11.5781H6.82812V11.2812Z" fill="#02015D"/>
<path d="M7.125 11.2812H6.82812V11.5781H7.125V11.2812Z" fill="#02015D"/>
<path d="M7.42188 11.2812H7.125V11.5781H7.42188V11.2812Z" fill="#02015D"/>
<path d="M7.71875 11.2812H7.42188V11.5781H7.71875V11.2812Z" fill="#02015D"/>
<path d="M8.01562 11.2812H7.71875V11.5781H8.01562V11.2812Z" fill="#02015D"/>
<path d="M8.3125 11.2812H8.01562V11.5781H8.3125V11.2812Z" fill="#02015D"/>
<path d="M8.60938 11.2812H8.3125V11.5781H8.60938V11.2812Z" fill="#02015D"/>
<path d="M8.90625 11.2812H8.60938V11.5781H8.90625V11.2812Z" fill="#02015D"/>
<path d="M9.20312 11.2812H8.90625V11.5781H9.20312V11.2812Z" fill="#02015D"/>
<path d="M9.5 11.2812H9.20312V11.5781H9.5V11.2812Z" fill="#02015D"/>
<path d="M9.79688 11.2812H9.5V11.5781H9.79688V11.2812Z" fill="#02015D"/>
<path d="M10.0938 11.2812H9.79688V11.5781H10.0938V11.2812Z" fill="#02015D"/>
<path d="M10.3906 11.2812H10.0938V11.5781H10.3906V11.2812Z" fill="#02015D"/>
<path d="M10.6875 11.2812H10.3906V11.5781H10.6875V11.2812Z" fill="#02015D"/>
<path d="M10.9844 11.2812H10.6875V11.5781H10.9844V11.2812Z" fill="#02015D"/>
<path d="M11.2812 11.2812H10.9844V11.5781H11.2812V11.2812Z" fill="#02015D"/>
<path d="M11.5781 11.2812H11.2812V11.5781H11.5781V11.2812Z" fill="#02015D"/>
<path d="M11.875 11.2812H11.5781V11.5781H11.875V11.2812Z" fill="#02015D"/>
<path d="M12.1719 11.2812H11.875V11.5781H12.1719V11.2812Z" fill="#02015D"/>
<path d="M12.4688 11.2812H12.1719V11.5781H12.4688V11.2812Z" fill="#02015D"/>
<path d="M12.7656 11.2812H12.4688V11.5781H12.7656V11.2812Z" fill="#02015D"/>
<path d="M13.0625 11.2812H12.7656V11.5781H13.0625V11.2812Z" fill="#02015D"/>
<path d="M13.3594 11.2812H13.0625V11.5781H13.3594V11.2812Z" fill="#02015D"/>
<path d="M13.6562 11.2812H13.3594V11.5781H13.6562V11.2812Z" fill="#02015D"/>
<path d="M13.9531 11.2812H13.6562V11.5781H13.9531V11.2812Z" fill="#02015D"/>
<path d="M14.25 11.2812H13.9531V11.5781H14.25V11.2812Z" fill="#02015D"/>
<path d="M14.5469 11.2812H14.25V11.5781H14.5469V11.2812Z" fill="#02015D"/>
<path d="M14.8438 11.2812H14.5469V11.5781H14.8438V11.2812Z" fill="#02015D"/>
<path d="M15.1406 11.2812H14.8438V11.5781H15.1406V11.2812Z" fill="#02015D"/>
<path d="M15.4375 11.2812H15.1406V11.5781H15.4375V11.2812Z" fill="#02015D"/>
<path d="M15.7344 11.2812H15.4375V11.5781H15.7344V11.2812Z" fill="#02015D"/>
<path d="M16.0312 11.2812H15.7344V11.5781H16.0312V11.2812Z" fill="#02015D"/>
<path d="M16.3281 11.2812H16.0312V11.5781H16.3281V11.2812Z" fill="#02015D"/>
<path d="M16.625 11.2812H16.3281V11.5781H16.625V11.2812Z" fill="#02015D"/>
<path d="M16.9219 11.2812H16.625V11.5781H16.9219V11.2812Z" fill="#02015D"/>
<path d="M17.2188 11.2812H16.9219V11.5781H17.2188V11.2812Z" fill="#02015D"/>
<path d="M17.5156 11.2812H17.2188V11.5781H17.5156V11.2812Z" fill="#02015D"/>
<path d="M1.78125 11.5781H1.48438V11.875H1.78125V11.5781Z" fill="#02015D"/>
<path d="M2.07812 11.5781H1.78125V11.875H2.07812V11.5781Z" fill="#02015D"/>
<path d="M2.375 11.5781H2.07812V11.875H2.375V11.5781Z" fill="#02015D"/>
<path d="M2.67188 11.5781H2.375V11.875H2.67188V11.5781Z" fill="#02015D"/>
<path d="M2.96875 11.5781H2.67188V11.875H2.96875V11.5781Z" fill="#02015D"/>
<path d="M3.26562 11.5781H2.96875V11.875H3.26562V11.5781Z" fill="#02015D"/>
<path d="M3.5625 11.5781H3.26562V11.875H3.5625V11.5781Z" fill="#02015D"/>
<path d="M3.85938 11.5781H3.5625V11.875H3.85938V11.5781Z" fill="#02015D"/>
<path d="M4.15625 11.5781H3.85938V11.875H4.15625V11.5781Z" fill="#02015D"/>
<path d="M4.45312 11.5781H4.15625V11.875H4.45312V11.5781Z" fill="#02015D"/>
<path d="M4.75 11.5781H4.45312V11.875H4.75V11.5781Z" fill="#02015D"/>
<path d="M5.04688 11.5781H4.75V11.875H5.04688V11.5781Z" fill="#02015D"/>
<path d="M5.34375 11.5781H5.04688V11.875H5.34375V11.5781Z" fill="#02015D"/>
<path d="M5.64062 11.5781H5.34375V11.875H5.64062V11.5781Z" fill="#02015D"/>
<path d="M5.9375 11.5781H5.64062V11.875H5.9375V11.5781Z" fill="#02015D"/>
<path d="M6.23438 11.5781H5.9375V11.875H6.23438V11.5781Z" fill="#02015D"/>
<path d="M6.53125 11.5781H6.23438V11.875H6.53125V11.5781Z" fill="#02015D"/>
<path d="M6.82812 11.5781H6.53125V11.875H6.82812V11.5781Z" fill="#02015D"/>
<path d="M7.125 11.5781H6.82812V11.875H7.125V11.5781Z" fill="#02015D"/>
<path d="M7.42188 11.5781H7.125V11.875H7.42188V11.5781Z" fill="#02015D"/>
<path d="M7.71875 11.5781H7.42188V11.875H7.71875V11.5781Z" fill="#02015D"/>
<path d="M8.01562 11.5781H7.71875V11.875H8.01562V11.5781Z" fill="#02015D"/>
<path d="M8.3125 11.5781H8.01562V11.875H8.3125V11.5781Z" fill="#02015D"/>
<path d="M8.60938 11.5781H8.3125V11.875H8.60938V11.5781Z" fill="#02015D"/>
<path d="M8.90625 11.5781H8.60938V11.875H8.90625V11.5781Z" fill="#02015D"/>
<path d="M9.20312 11.5781H8.90625V11.875H9.20312V11.5781Z" fill="#02015D"/>
<path d="M9.5 11.5781H9.20312V11.875H9.5V11.5781Z" fill="#02015D"/>
<path d="M9.79688 11.5781H9.5V11.875H9.79688V11.5781Z" fill="#02015D"/>
<path d="M10.0938 11.5781H9.79688V11.875H10.0938V11.5781Z" fill="#02015D"/>
<path d="M10.3906 11.5781H10.0938V11.875H10.3906V11.5781Z" fill="#02015D"/>
<path d="M10.6875 11.5781H10.3906V11.875H10.6875V11.5781Z" fill="#02015D"/>
<path d="M10.9844 11.5781H10.6875V11.875H10.9844V11.5781Z" fill="#02015D"/>
<path d="M11.2812 11.5781H10.9844V11.875H11.2812V11.5781Z" fill="#02015D"/>
<path d="M11.5781 11.5781H11.2812V11.875H11.5781V11.5781Z" fill="#02015D"/>
<path d="M11.875 11.5781H11.5781V11.875H11.875V11.5781Z" fill="#02015D"/>
<path d="M12.1719 11.5781H11.875V11.875H12.1719V11.5781Z" fill="#02015D"/>
<path d="M12.4688 11.5781H12.1719V11.875H12.4688V11.5781Z" fill="#02015D"/>
<path d="M12.7656 11.5781H12.4688V11.875H12.7656V11.5781Z" fill="#02015D"/>
<path d="M13.0625 11.5781H12.7656V11.875H13.0625V11.5781Z" fill="#02015D"/>
<path d="M13.3594 11.5781H13.0625V11.875H13.3594V11.5781Z" fill="#02015D"/>
<path d="M13.6562 11.5781H13.3594V11.875H13.6562V11.5781Z" fill="#02015D"/>
<path d="M13.9531 11.5781H13.6562V11.875H13.9531V11.5781Z" fill="#02015D"/>
<path d="M14.25 11.5781H13.9531V11.875H14.25V11.5781Z" fill="#02015D"/>
<path d="M14.5469 11.5781H14.25V11.875H14.5469V11.5781Z" fill="#02015D"/>
<path d="M14.8438 11.5781H14.5469V11.875H14.8438V11.5781Z" fill="#02015D"/>
<path d="M15.1406 11.5781H14.8438V11.875H15.1406V11.5781Z" fill="#02015D"/>
<path d="M15.4375 11.5781H15.1406V11.875H15.4375V11.5781Z" fill="#02015D"/>
<path d="M15.7344 11.5781H15.4375V11.875H15.7344V11.5781Z" fill="#02015D"/>
<path d="M16.0312 11.5781H15.7344V11.875H16.0312V11.5781Z" fill="#02015D"/>
<path d="M16.3281 11.5781H16.0312V11.875H16.3281V11.5781Z" fill="#02015D"/>
<path d="M16.625 11.5781H16.3281V11.875H16.625V11.5781Z" fill="#02015D"/>
<path d="M16.9219 11.5781H16.625V11.875H16.9219V11.5781Z" fill="#02015D"/>
<path d="M17.2188 11.5781H16.9219V11.875H17.2188V11.5781Z" fill="#02015D"/>
<path d="M17.5156 11.5781H17.2188V11.875H17.5156V11.5781Z" fill="#02015D"/>
<path d="M2.67188 11.875H2.375V12.1719H2.67188V11.875Z" fill="#02015D"/>
<path d="M2.96875 11.875H2.67188V12.1719H2.96875V11.875Z" fill="#02015D"/>
<path d="M3.26562 11.875H2.96875V12.1719H3.26562V11.875Z" fill="#02015D"/>
<path d="M3.5625 11.875H3.26562V12.1719H3.5625V11.875Z" fill="#02015D"/>
<path d="M3.85938 11.875H3.5625V12.1719H3.85938V11.875Z" fill="#02015D"/>
<path d="M4.15625 11.875H3.85938V12.1719H4.15625V11.875Z" fill="#02015D"/>
<path d="M4.45312 11.875H4.15625V12.1719H4.45312V11.875Z" fill="#02015D"/>
<path d="M4.75 11.875H4.45312V12.1719H4.75V11.875Z" fill="#02015D"/>
<path d="M5.04688 11.875H4.75V12.1719H5.04688V11.875Z" fill="#02015D"/>
<path d="M5.34375 11.875H5.04688V12.1719H5.34375V11.875Z" fill="#02015D"/>
<path d="M5.64062 11.875H5.34375V12.1719H5.64062V11.875Z" fill="#02015D"/>
<path d="M5.9375 11.875H5.64062V12.1719H5.9375V11.875Z" fill="#02015D"/>
<path d="M6.23438 11.875H5.9375V12.1719H6.23438V11.875Z" fill="#02015D"/>
<path d="M6.53125 11.875H6.23438V12.1719H6.53125V11.875Z" fill="#02015D"/>
<path d="M6.82812 11.875H6.53125V12.1719H6.82812V11.875Z" fill="#02015D"/>
<path d="M7.125 11.875H6.82812V12.1719H7.125V11.875Z" fill="#02015D"/>
<path d="M7.42188 11.875H7.125V12.1719H7.42188V11.875Z" fill="#02015D"/>
<path d="M7.71875 11.875H7.42188V12.1719H7.71875V11.875Z" fill="#02015D"/>
<path d="M8.01562 11.875H7.71875V12.1719H8.01562V11.875Z" fill="#02015D"/>
<path d="M8.3125 11.875H8.01562V12.1719H8.3125V11.875Z" fill="#02015D"/>
<path d="M8.60938 11.875H8.3125V12.1719H8.60938V11.875Z" fill="#02015D"/>
<path d="M10.6875 11.875H10.3906V12.1719H10.6875V11.875Z" fill="#02015D"/>
<path d="M10.9844 11.875H10.6875V12.1719H10.9844V11.875Z" fill="#02015D"/>
<path d="M11.2812 11.875H10.9844V12.1719H11.2812V11.875Z" fill="#02015D"/>
<path d="M11.5781 11.875H11.2812V12.1719H11.5781V11.875Z" fill="#02015D"/>
<path d="M11.875 11.875H11.5781V12.1719H11.875V11.875Z" fill="#02015D"/>
<path d="M12.1719 11.875H11.875V12.1719H12.1719V11.875Z" fill="#02015D"/>
<path d="M12.4688 11.875H12.1719V12.1719H12.4688V11.875Z" fill="#02015D"/>
<path d="M12.7656 11.875H12.4688V12.1719H12.7656V11.875Z" fill="#02015D"/>
<path d="M13.0625 11.875H12.7656V12.1719H13.0625V11.875Z" fill="#02015D"/>
<path d="M13.3594 11.875H13.0625V12.1719H13.3594V11.875Z" fill="#02015D"/>
<path d="M13.6562 11.875H13.3594V12.1719H13.6562V11.875Z" fill="#02015D"/>
<path d="M13.9531 11.875H13.6562V12.1719H13.9531V11.875Z" fill="#02015D"/>
<path d="M14.25 11.875H13.9531V12.1719H14.25V11.875Z" fill="#02015D"/>
<path d="M14.5469 11.875H14.25V12.1719H14.5469V11.875Z" fill="#02015D"/>
<path d="M14.8438 11.875H14.5469V12.1719H14.8438V11.875Z" fill="#02015D"/>
<path d="M15.1406 11.875H14.8438V12.1719H15.1406V11.875Z" fill="#02015D"/>
<path d="M15.4375 11.875H15.1406V12.1719H15.4375V11.875Z" fill="#02015D"/>
<path d="M15.7344 11.875H15.4375V12.1719H15.7344V11.875Z" fill="#02015D"/>
<path d="M16.0312 11.875H15.7344V12.1719H16.0312V11.875Z" fill="#02015D"/>
<path d="M16.3281 11.875H16.0312V12.1719H16.3281V11.875Z" fill="#02015D"/>
<path d="M16.625 11.875H16.3281V12.1719H16.625V11.875Z" fill="#02015D"/>
<path d="M2.67188 12.1719H2.375V12.4688H2.67188V12.1719Z" fill="#02015D"/>
<path d="M2.96875 12.1719H2.67188V12.4688H2.96875V12.1719Z" fill="#02015D"/>
<path d="M3.26562 12.1719H2.96875V12.4688H3.26562V12.1719Z" fill="#02015D"/>
<path d="M3.5625 12.1719H3.26562V12.4688H3.5625V12.1719Z" fill="#02015D"/>
<path d="M3.85938 12.1719H3.5625V12.4688H3.85938V12.1719Z" fill="#02015D"/>
<path d="M4.15625 12.1719H3.85938V12.4688H4.15625V12.1719Z" fill="#02015D"/>
<path d="M4.45312 12.1719H4.15625V12.4688H4.45312V12.1719Z" fill="#02015D"/>
<path d="M4.75 12.1719H4.45312V12.4688H4.75V12.1719Z" fill="#02015D"/>
<path d="M5.04688 12.1719H4.75V12.4688H5.04688V12.1719Z" fill="#02015D"/>
<path d="M5.34375 12.1719H5.04688V12.4688H5.34375V12.1719Z" fill="#02015D"/>
<path d="M5.64062 12.1719H5.34375V12.4688H5.64062V12.1719Z" fill="#02015D"/>
<path d="M5.9375 12.1719H5.64062V12.4688H5.9375V12.1719Z" fill="#02015D"/>
<path d="M6.23438 12.1719H5.9375V12.4688H6.23438V12.1719Z" fill="#02015D"/>
<path d="M6.53125 12.1719H6.23438V12.4688H6.53125V12.1719Z" fill="#02015D"/>
<path d="M6.82812 12.1719H6.53125V12.4688H6.82812V12.1719Z" fill="#02015D"/>
<path d="M7.125 12.1719H6.82812V12.4688H7.125V12.1719Z" fill="#02015D"/>
<path d="M7.42188 12.1719H7.125V12.4688H7.42188V12.1719Z" fill="#02015D"/>
<path d="M7.71875 12.1719H7.42188V12.4688H7.71875V12.1719Z" fill="#02015D"/>
<path d="M8.01562 12.1719H7.71875V12.4688H8.01562V12.1719Z" fill="#02015D"/>
<path d="M8.3125 12.1719H8.01562V12.4688H8.3125V12.1719Z" fill="#02015D"/>
<path d="M8.60938 12.1719H8.3125V12.4688H8.60938V12.1719Z" fill="#02015D"/>
<path d="M10.6875 12.1719H10.3906V12.4688H10.6875V12.1719Z" fill="#02015D"/>
<path d="M10.9844 12.1719H10.6875V12.4688H10.9844V12.1719Z" fill="#02015D"/>
<path d="M11.2812 12.1719H10.9844V12.4688H11.2812V12.1719Z" fill="#02015D"/>
<path d="M11.5781 12.1719H11.2812V12.4688H11.5781V12.1719Z" fill="#02015D"/>
<path d="M11.875 12.1719H11.5781V12.4688H11.875V12.1719Z" fill="#02015D"/>
<path d="M12.1719 12.1719H11.875V12.4688H12.1719V12.1719Z" fill="#02015D"/>
<path d="M12.4688 12.1719H12.1719V12.4688H12.4688V12.1719Z" fill="#02015D"/>
<path d="M12.7656 12.1719H12.4688V12.4688H12.7656V12.1719Z" fill="#02015D"/>
<path d="M13.0625 12.1719H12.7656V12.4688H13.0625V12.1719Z" fill="#02015D"/>
<path d="M13.3594 12.1719H13.0625V12.4688H13.3594V12.1719Z" fill="#02015D"/>
<path d="M13.6562 12.1719H13.3594V12.4688H13.6562V12.1719Z" fill="#02015D"/>
<path d="M13.9531 12.1719H13.6562V12.4688H13.9531V12.1719Z" fill="#02015D"/>
<path d="M14.25 12.1719H13.9531V12.4688H14.25V12.1719Z" fill="#02015D"/>
<path d="M14.5469 12.1719H14.25V12.4688H14.5469V12.1719Z" fill="#02015D"/>
<path d="M14.8438 12.1719H14.5469V12.4688H14.8438V12.1719Z" fill="#02015D"/>
<path d="M15.1406 12.1719H14.8438V12.4688H15.1406V12.1719Z" fill="#02015D"/>
<path d="M15.4375 12.1719H15.1406V12.4688H15.4375V12.1719Z" fill="#02015D"/>
<path d="M15.7344 12.1719H15.4375V12.4688H15.7344V12.1719Z" fill="#02015D"/>
<path d="M16.0312 12.1719H15.7344V12.4688H16.0312V12.1719Z" fill="#02015D"/>
<path d="M16.3281 12.1719H16.0312V12.4688H16.3281V12.1719Z" fill="#02015D"/>
<path d="M16.625 12.1719H16.3281V12.4688H16.625V12.1719Z" fill="#02015D"/>
<path d="M2.67188 12.4688H2.375V12.7656H2.67188V12.4688Z" fill="#02015D"/>
<path d="M2.96875 12.4688H2.67188V12.7656H2.96875V12.4688Z" fill="#02015D"/>
<path d="M3.26562 12.4688H2.96875V12.7656H3.26562V12.4688Z" fill="#02015D"/>
<path d="M3.5625 12.4688H3.26562V12.7656H3.5625V12.4688Z" fill="#02015D"/>
<path d="M3.85938 12.4688H3.5625V12.7656H3.85938V12.4688Z" fill="#02015D"/>
<path d="M4.15625 12.4688H3.85938V12.7656H4.15625V12.4688Z" fill="#02015D"/>
<path d="M4.45312 12.4688H4.15625V12.7656H4.45312V12.4688Z" fill="#02015D"/>
<path d="M4.75 12.4688H4.45312V12.7656H4.75V12.4688Z" fill="#02015D"/>
<path d="M5.04688 12.4688H4.75V12.7656H5.04688V12.4688Z" fill="#02015D"/>
<path d="M5.34375 12.4688H5.04688V12.7656H5.34375V12.4688Z" fill="#02015D"/>
<path d="M5.64062 12.4688H5.34375V12.7656H5.64062V12.4688Z" fill="#02015D"/>
<path d="M5.9375 12.4688H5.64062V12.7656H5.9375V12.4688Z" fill="#02015D"/>
<path d="M6.23438 12.4688H5.9375V12.7656H6.23438V12.4688Z" fill="#02015D"/>
<path d="M6.53125 12.4688H6.23438V12.7656H6.53125V12.4688Z" fill="#02015D"/>
<path d="M6.82812 12.4688H6.53125V12.7656H6.82812V12.4688Z" fill="#02015D"/>
<path d="M7.125 12.4688H6.82812V12.7656H7.125V12.4688Z" fill="#02015D"/>
<path d="M7.42188 12.4688H7.125V12.7656H7.42188V12.4688Z" fill="#02015D"/>
<path d="M7.71875 12.4688H7.42188V12.7656H7.71875V12.4688Z" fill="#02015D"/>
<path d="M8.01562 12.4688H7.71875V12.7656H8.01562V12.4688Z" fill="#02015D"/>
<path d="M8.3125 12.4688H8.01562V12.7656H8.3125V12.4688Z" fill="#02015D"/>
<path d="M8.60938 12.4688H8.3125V12.7656H8.60938V12.4688Z" fill="#02015D"/>
<path d="M10.6875 12.4688H10.3906V12.7656H10.6875V12.4688Z" fill="#02015D"/>
<path d="M10.9844 12.4688H10.6875V12.7656H10.9844V12.4688Z" fill="#02015D"/>
<path d="M11.2812 12.4688H10.9844V12.7656H11.2812V12.4688Z" fill="#02015D"/>
<path d="M11.5781 12.4688H11.2812V12.7656H11.5781V12.4688Z" fill="#02015D"/>
<path d="M11.875 12.4688H11.5781V12.7656H11.875V12.4688Z" fill="#02015D"/>
<path d="M12.1719 12.4688H11.875V12.7656H12.1719V12.4688Z" fill="#02015D"/>
<path d="M12.4688 12.4688H12.1719V12.7656H12.4688V12.4688Z" fill="#02015D"/>
<path d="M12.7656 12.4688H12.4688V12.7656H12.7656V12.4688Z" fill="#02015D"/>
<path d="M13.0625 12.4688H12.7656V12.7656H13.0625V12.4688Z" fill="#02015D"/>
<path d="M13.3594 12.4688H13.0625V12.7656H13.3594V12.4688Z" fill="#02015D"/>
<path d="M13.6562 12.4688H13.3594V12.7656H13.6562V12.4688Z" fill="#02015D"/>
<path d="M13.9531 12.4688H13.6562V12.7656H13.9531V12.4688Z" fill="#02015D"/>
<path d="M14.25 12.4688H13.9531V12.7656H14.25V12.4688Z" fill="#02015D"/>
<path d="M14.5469 12.4688H14.25V12.7656H14.5469V12.4688Z" fill="#02015D"/>
<path d="M14.8438 12.4688H14.5469V12.7656H14.8438V12.4688Z" fill="#02015D"/>
<path d="M15.1406 12.4688H14.8438V12.7656H15.1406V12.4688Z" fill="#02015D"/>
<path d="M15.4375 12.4688H15.1406V12.7656H15.4375V12.4688Z" fill="#02015D"/>
<path d="M15.7344 12.4688H15.4375V12.7656H15.7344V12.4688Z" fill="#02015D"/>
<path d="M16.0312 12.4688H15.7344V12.7656H16.0312V12.4688Z" fill="#02015D"/>
<path d="M16.3281 12.4688H16.0312V12.7656H16.3281V12.4688Z" fill="#02015D"/>
<path d="M16.625 12.4688H16.3281V12.7656H16.625V12.4688Z" fill="#02015D"/>
<path d="M3.5625 12.7656H3.26562V13.0625H3.5625V12.7656Z" fill="#02015D"/>
<path d="M3.85938 12.7656H3.5625V13.0625H3.85938V12.7656Z" fill="#02015D"/>
<path d="M4.15625 12.7656H3.85938V13.0625H4.15625V12.7656Z" fill="#02015D"/>
<path d="M4.45312 12.7656H4.15625V13.0625H4.45312V12.7656Z" fill="#02015D"/>
<path d="M4.75 12.7656H4.45312V13.0625H4.75V12.7656Z" fill="#02015D"/>
<path d="M5.04688 12.7656H4.75V13.0625H5.04688V12.7656Z" fill="#02015D"/>
<path d="M5.34375 12.7656H5.04688V13.0625H5.34375V12.7656Z" fill="#02015D"/>
<path d="M5.64062 12.7656H5.34375V13.0625H5.64062V12.7656Z" fill="#02015D"/>
<path d="M5.9375 12.7656H5.64062V13.0625H5.9375V12.7656Z" fill="#02015D"/>
<path d="M6.23438 12.7656H5.9375V13.0625H6.23438V12.7656Z" fill="#02015D"/>
<path d="M6.53125 12.7656H6.23438V13.0625H6.53125V12.7656Z" fill="#02015D"/>
<path d="M6.82812 12.7656H6.53125V13.0625H6.82812V12.7656Z" fill="#02015D"/>
<path d="M7.125 12.7656H6.82812V13.0625H7.125V12.7656Z" fill="#02015D"/>
<path d="M7.42188 12.7656H7.125V13.0625H7.42188V12.7656Z" fill="#02015D"/>
<path d="M7.71875 12.7656H7.42188V13.0625H7.71875V12.7656Z" fill="#02015D"/>
<path d="M8.01562 12.7656H7.71875V13.0625H8.01562V12.7656Z" fill="#02015D"/>
<path d="M11.2812 12.7656H10.9844V13.0625H11.2812V12.7656Z" fill="#02015D"/>
<path d="M11.5781 12.7656H11.2812V13.0625H11.5781V12.7656Z" fill="#02015D"/>
<path d="M11.875 12.7656H11.5781V13.0625H11.875V12.7656Z" fill="#02015D"/>
<path d="M12.1719 12.7656H11.875V13.0625H12.1719V12.7656Z" fill="#02015D"/>
<path d="M12.4688 12.7656H12.1719V13.0625H12.4688V12.7656Z" fill="#02015D"/>
<path d="M12.7656 12.7656H12.4688V13.0625H12.7656V12.7656Z" fill="#02015D"/>
<path d="M13.0625 12.7656H12.7656V13.0625H13.0625V12.7656Z" fill="#02015D"/>
<path d="M13.3594 12.7656H13.0625V13.0625H13.3594V12.7656Z" fill="#02015D"/>
<path d="M13.6562 12.7656H13.3594V13.0625H13.6562V12.7656Z" fill="#02015D"/>
<path d="M13.9531 12.7656H13.6562V13.0625H13.9531V12.7656Z" fill="#02015D"/>
<path d="M14.25 12.7656H13.9531V13.0625H14.25V12.7656Z" fill="#02015D"/>
<path d="M14.5469 12.7656H14.25V13.0625H14.5469V12.7656Z" fill="#02015D"/>
<path d="M14.8438 12.7656H14.5469V13.0625H14.8438V12.7656Z" fill="#02015D"/>
<path d="M15.1406 12.7656H14.8438V13.0625H15.1406V12.7656Z" fill="#02015D"/>
<path d="M15.4375 12.7656H15.1406V13.0625H15.4375V12.7656Z" fill="#02015D"/>
<path d="M15.7344 12.7656H15.4375V13.0625H15.7344V12.7656Z" fill="#02015D"/>
<path d="M3.5625 13.0625H3.26562V13.3594H3.5625V13.0625Z" fill="#02015D"/>
<path d="M3.85938 13.0625H3.5625V13.3594H3.85938V13.0625Z" fill="#02015D"/>
<path d="M4.15625 13.0625H3.85938V13.3594H4.15625V13.0625Z" fill="#02015D"/>
<path d="M4.45312 13.0625H4.15625V13.3594H4.45312V13.0625Z" fill="#02015D"/>
<path d="M4.75 13.0625H4.45312V13.3594H4.75V13.0625Z" fill="#02015D"/>
<path d="M5.04688 13.0625H4.75V13.3594H5.04688V13.0625Z" fill="#02015D"/>
<path d="M5.34375 13.0625H5.04688V13.3594H5.34375V13.0625Z" fill="#02015D"/>
<path d="M5.64062 13.0625H5.34375V13.3594H5.64062V13.0625Z" fill="#02015D"/>
<path d="M5.9375 13.0625H5.64062V13.3594H5.9375V13.0625Z" fill="#02015D"/>
<path d="M6.23438 13.0625H5.9375V13.3594H6.23438V13.0625Z" fill="#02015D"/>
<path d="M6.53125 13.0625H6.23438V13.3594H6.53125V13.0625Z" fill="#02015D"/>
<path d="M6.82812 13.0625H6.53125V13.3594H6.82812V13.0625Z" fill="#02015D"/>
<path d="M7.125 13.0625H6.82812V13.3594H7.125V13.0625Z" fill="#02015D"/>
<path d="M7.42188 13.0625H7.125V13.3594H7.42188V13.0625Z" fill="#02015D"/>
<path d="M7.71875 13.0625H7.42188V13.3594H7.71875V13.0625Z" fill="#02015D"/>
<path d="M8.01562 13.0625H7.71875V13.3594H8.01562V13.0625Z" fill="#02015D"/>
<path d="M11.2812 13.0625H10.9844V13.3594H11.2812V13.0625Z" fill="#02015D"/>
<path d="M11.5781 13.0625H11.2812V13.3594H11.5781V13.0625Z" fill="#02015D"/>
<path d="M11.875 13.0625H11.5781V13.3594H11.875V13.0625Z" fill="#02015D"/>
<path d="M12.1719 13.0625H11.875V13.3594H12.1719V13.0625Z" fill="#02015D"/>
<path d="M12.4688 13.0625H12.1719V13.3594H12.4688V13.0625Z" fill="#02015D"/>
<path d="M12.7656 13.0625H12.4688V13.3594H12.7656V13.0625Z" fill="#02015D"/>
<path d="M13.0625 13.0625H12.7656V13.3594H13.0625V13.0625Z" fill="#02015D"/>
<path d="M13.3594 13.0625H13.0625V13.3594H13.3594V13.0625Z" fill="#02015D"/>
<path d="M13.6562 13.0625H13.3594V13.3594H13.6562V13.0625Z" fill="#02015D"/>
<path d="M13.9531 13.0625H13.6562V13.3594H13.9531V13.0625Z" fill="#02015D"/>
<path d="M14.25 13.0625H13.9531V13.3594H14.25V13.0625Z" fill="#02015D"/>
<path d="M14.5469 13.0625H14.25V13.3594H14.5469V13.0625Z" fill="#02015D"/>
<path d="M14.8438 13.0625H14.5469V13.3594H14.8438V13.0625Z" fill="#02015D"/>
<path d="M15.1406 13.0625H14.8438V13.3594H15.1406V13.0625Z" fill="#02015D"/>
<path d="M15.4375 13.0625H15.1406V13.3594H15.4375V13.0625Z" fill="#02015D"/>
<path d="M15.7344 13.0625H15.4375V13.3594H15.7344V13.0625Z" fill="#02015D"/>
</svg>
