<svg xmlns="http://www.w3.org/2000/svg" width="10" height="10" viewBox="0 0 10 10" fill="none">
 <g clip-path="url(#clip0_2061_6427)">
 <path d="M0.829102 2.073H2.07289V3.31679H0.829102V2.073ZM0.829102 7.04815H2.07289V8.29193H0.829102V7.04815ZM0.829102 4.56057H2.07289V5.80436H0.829102V4.56057ZM9.53561 2.48759V2.90219H9.12102V3.31679H4.14587V2.90219H3.73127V2.48759H4.14587V2.073H9.12102V2.48759H9.53561ZM9.12102 4.97517H9.53561V5.38976H9.12102V5.80436H4.14587V5.38976H3.73127V4.97517H4.14587V4.56057H9.12102V4.97517ZM9.12102 7.46274H9.53561V7.87734H9.12102V8.29193H4.14587V7.87734H3.73127V7.46274H4.14587V7.04815H9.12102V7.46274Z" fill="#02015D"/>
 </g>
 <defs>
 <clipPath id="clip0_2061_6427">
 <rect width="9.9503" height="9.9503" fill="white"/>
 </clipPath>
 </defs>
</svg>
